<svg id="Groupe_54" data-name="Groupe 54" xmlns="http://www.w3.org/2000/svg" xmlns:xlink="http://www.w3.org/1999/xlink" width="655.549" height="100.346" viewBox="0 0 655.549 100.346">
  <defs>
    <clipPath id="clip-path">
      <rect id="Rectangle_26" data-name="Rectangle 26" width="655.549" height="100.346" fill="#f6e455"/>
    </clipPath>
  </defs>
  <g id="Groupe_53" data-name="Groupe 53" transform="translate(0 0)" clipPath="url(#clip-path)">
    <path id="Tracé_49" data-name="Tracé 49" d="M502.58,5.017c.761.17,1.621.311,2.261.517,1.084.347,1.236.778.477,1.2a7.247,7.247,0,0,1-3.558.487,50.883,50.883,0,0,0-13.434,1.193c-1.095.247-2.506.362-3.736.529a9.58,9.58,0,0,0,1.279-.757c.086-.069-.353-.2-.551-.3a3.9,3.9,0,0,0-.925.21,2.344,2.344,0,0,0,.288.834,9.593,9.593,0,0,1-4.478.351A18.976,18.976,0,0,1,480.7,7.2c.071-.208.517-.4.893-.68,2.258-.127,4.605-.242,6.923-.395,3.928-.258,4.066-.34,3.728-1.876-2.042-.105-4.109-.219-6.186-.313a10.278,10.278,0,0,0-2.07,0c-2.348.682-4.948.258-7.468.239a20.026,20.026,0,0,0-2.183.242c.934.471,2.218.866,2.516,1.322a10.054,10.054,0,0,1,.974,2.878l-7.027.909-7.725-.64-1.67,1.36-2.292-1.085-3.8,1.235.185.051c-1.247-.22-2.6-.4-3.719-.669a10.926,10.926,0,0,0-5.82.031,16.955,16.955,0,0,1-4.995.581,50.165,50.165,0,0,0-6.036.64c-.961.144-2.161.478-2.261.759-.335.928-2.3,1.275-4.782,1.4-3.177.166-6.218.594-9.675-.025a43.252,43.252,0,0,0-7.08-.16c-3.8.07-7.583.261-11.384.366a38.985,38.985,0,0,1-4.93-.025,23.461,23.461,0,0,0-9.171.611c-.478.133-1.314.144-3.009.315l6.467.307a6.026,6.026,0,0,1-1.112.256q-16.241,0-32.484-.033-16.962-.017-33.923-.029c-4.092-.007-8.183-.064-12.276-.087-4.773-.026-9.549-.074-14.32-.049-3.052.016-6.1.146-9.158.355a67,67,0,0,0,9.307.381c13.715,0,27.432-.1,41.144-.055,11.3.035,22.6.233,33.9.331,4.8.041,9.608-.007,14.41.023a8.1,8.1,0,0,1,3.028.55H292.547c0,.1-.006.2-.01.3,6.459,0,12.919-.03,19.376.006,14.179.08,28.354.213,42.533.284,6.907.034,13.82-.058,20.728-.027,10.1.045,20.2.139,30.3.231q9.015.083,18.023.225a32.089,32.089,0,0,1,5.531.472c-1.787.056-3.572.117-5.361.167-3.115.088-6.248.134-9.338.273a9.173,9.173,0,0,0-3.033.495c-.845.886-3.055,1.38-5.529,1.688.619.331.707.442.863.453a99.711,99.711,0,0,0,18.2-.013c.883-.1,1.871-.121,2.772-.214a9.524,9.524,0,0,1,3.726.209c2.792.687,6.368.494,9.623.256a8.294,8.294,0,0,0,2.294-.78c2.247,1.2,5.807,1.221,9.379,1.323,1.616-.545,1.723-1.421,4.474-1.638,1.512-.12,2.741.115,2.284.673-.276.336-.393.586.474.755a18.38,18.38,0,0,0,8.329.018l-2.229-.924,4.379-.876c2.182.611-.1,1.178.411,1.7.679.7-2.316.662-2.467,1.187,4.081.1,4.081.1,6.667-.325,4.626,1.335,4.626,1.335,10.1.315-.145-.533-3.462-.519-2.388-1.293.484-.349.684-.709,2.673-.739l3.747,2.492c1.723.045,3.144-.321,3.184-.844.171-2.28,4.849-2.809,11.039-2.826h1.917c.065.248.406.54.129.758a3.682,3.682,0,0,1-1.812.608c-3.586.011-5.376.908-7.9,1.425a5.888,5.888,0,0,0-1.647.817,21.379,21.379,0,0,0,6.142.469c2.36-.1,4.712-.228,7.082-.294,1.115-.031,2.3.013,3.393.094a79.327,79.327,0,0,0,13.918-.056c2.091-.129,4.408-.146,5.527.809A13.283,13.283,0,0,1,527.212,26a40.224,40.224,0,0,1-4.989,1.507c-.459-.15-1.323-.3-1.309-.449.133-1.407.175-1.407-1.891-2.779-5.387-.251-5.387-.251-11.407.942-.155.287-.019.709-.614.98-.864.394-.827,1.239-2.813,1.106-2.783-.187-1.207-.918-.983-1.452.058-.141-.081-.289-.13-.434-3.282-.644-3.282-.644-8-.273.186.4.376.809.595,1.277-1.127.312-2.365.631-3.506.979s-1.3.952-3.418,1.121c-1.92-.523-.408-1.074.116-1.561a18.138,18.138,0,0,1,2.435-1.562c-6.354-.81-12.806-.6-19.184-.521a13.478,13.478,0,0,0-3.77.5,10.273,10.273,0,0,1-4.983,1.03c-.583-.006-1.225.517-1.9.823l-2.685-.486-4.567,1.777c6.187,1.057,12.733.013,18.353.852l4.975-3.065,4.7.682c-.411.739-.763,1.373-1.194,2.151,1.283.118,2.324.246,3.4.309,2.652.153,5.8-.262,7.7.758a17.029,17.029,0,0,0,3.4.16c4.989.042,9.98.063,15.423.094-.635.33-.874.628-1.324.661-3.692.276-7.421.5-11.141.744-1.168.075-2.459.071-3.477.232a5.269,5.269,0,0,0-2.331.728c-.221.391,1.122.649,2.377.65a52.251,52.251,0,0,1,10.816,1.03,27.231,27.231,0,0,0,4.866.173c3.819-.052,7.627-.169,11.59-.262.3.285.622.475.682.672.135.448.917.675,2.312.656,1.414-.02,2.113-.258,1.939-.723-.046-.123.3-.261.632-.518,16.826.35,33.783.047,50.4-.225,2.526.6,2.4,1.254.983,1.835a22.882,22.882,0,0,1-7.088,1.6V35.757a23.892,23.892,0,0,0-3.445.21c-1.828.562-3.34,1.22-5.248,1.944-1.832.045-3.832-.526-6.428-.215-2.369.285-3.2.063-3.688-.812-.364-.648-.851-.989-3.337-.634-.448.654,3.571.921,1.888,1.634-1.058.448-2.654.776-4.309,1.243a26.483,26.483,0,0,0-3.075-1.02,13.847,13.847,0,0,0-3.233-.326c-2.45.81-6.039.086-8.536.672-5.212-.208-9.075.916-14.385,1.259-1.612-.291-2.2-1.332-6.031-1.328a30.484,30.484,0,0,1-11.552,1.167L498.7,38.487a19.4,19.4,0,0,0-3.505.576c-1.434.739-3.442.728-5.6.6-1.58-.092-3.094-.292-4.971-.477L481.99,41.1c-4.7.328-9.454.333-14.246.215-1.9-.047-3.827-.106-5.706-.047-6.532.2-6.526.222-10.573,2.006a59.6,59.6,0,0,0-10.953.139c-2.08.152-4.292.14-6.448.184-1.919.038-3.995-.084-5.735.1-5.162.548-10.451.356-15.7.419-4.533.054-8.983.1-13.544.382-5.567.343-11.5.125-17.274.153-6.978.034-14.079-.162-20.893.18-5.962.3-11.923-.31-17.714.284-6.9-.483-13.894.272-20.81-.161-1.1-.069-2.449-.02-2.455.514a5.687,5.687,0,0,0,1.1.22q17.668.108,35.337.191c12.984.067,25.968.162,38.953.191,14.171.031,28.334-.173,42.5-.215,15.162-.045,30.328.031,45.49-.017,16.114-.05,32.225-.218,48.34-.272q27.792-.094,55.586-.082c5.749-.007,11.5,0,17.081,0l1.693,1.039c2.05-.054,1.064-.539,1.811-.908.481-.031,1.413-.152,2.324-.14,6.727.089,13.32-.259,19.945-.517a17.893,17.893,0,0,1,2.773.092c.534.068,1.056.328,1.114.515s-.364.422-.833.543a12.574,12.574,0,0,1-1.987.217c-3.058.191-6.126.366-9.186.554-1.413.086-2.9.129-4.2.3-2,.264-3.863-.5-6.107.093a46.792,46.792,0,0,1-6.173.558c2.231.844,2.27.771,6.223.9,2.181.073,4.272.4,7.03.676a18.414,18.414,0,0,1-2.472.427c-1.892.053-3.809.018-6.017.018-1.478.977-3.076,2-2.321,3.091-5.731,1.168-12.687.481-17.931,1.62.466.223.667.424.942.435,3.3.124,6.707.42,9.9.277a125.471,125.471,0,0,1,15.554.547c.153.012.233.113.622.314-2.331.573-3.22,1.68-7.476,1.633-1.619-.018-2.307.671-1.133.99a45.82,45.82,0,0,0,4.608,1.037c1.167.193,2.744.146,3.955.323,1.236.181,2.25.505,3.554.811a37.857,37.857,0,0,1,11.581-.5c-.256.16-.372.35-.619.368-2.336.168-4.68.333-7.047.451-10.648.531-21.343.984-31.95,1.582-17.089.965-34.344,1.405-51.652,1.686-16.324.265-32.661.454-48.994.668-5.267.069-10.539.1-15.807.169-2.1.028-4.2.118-6.569.188.62.689,2.279.571,3.473.583,8.891.091,17.785.148,26.678.227.926.008,1.844.093,2.634.135.506.418.01.655-1.081.693-3.1.108-6.217.185-9.331.253s-6.227.112-8.9.158l-5.376,1.629c.459.463,1.689.458,2.9.458,6.011,0,12.04.091,18.029-.021,7.512-.142,14.828.345,22.251.448a9.373,9.373,0,0,1,3.376.7c2.353.727,3.095.687,6.6.042a9.187,9.187,0,0,1,1.815-.153c1.794.809,3.955-.035,6,.138,2.686.227,5.641.167,8.484.209,2.149.033,4.3.041,6.454.045a27.33,27.33,0,0,1,2.834-.036c5.439.708,11.133.464,16.768.53,3.059.036,6.088.312,9.44.5-.645.908-2.774.994-4.422.912-4.535-.227-8.692.468-13.167.387-1.822-.033-2.791.5-3.053,1.056.324.7,4.762.736,2.71,1.895-7.11-.176-14.427.067-21.764.154s-14.7-.011-21.946.181c-.634.767.5,1.109,2.37,1.2,1.645.082,3.361.073,5.036.05,9.871-.138,19.66.077,29.409.554,1.354.066,2.814-.107,4.218-.094,1.071.01,2.13.138,4.325.294a114.229,114.229,0,0,1-16.737,1.27c-4.566.022-9.13.219-13.69.2a21.93,21.93,0,0,0-9.659,1.91c9.319.4,17.917-.035,26.51.195,1.458.547,2.261,1.334,5.206,1.3.944-.011,1.914.066,2.85.132,2.411.171,2.822.705,2.507,1.362A54.717,54.717,0,0,1,550.5,86.17q-12.262.024-24.523.128c-8.415.082-16.827.216-25.235.355a33.092,33.092,0,0,0-8.654,1.007,16.127,16.127,0,0,0,4.61.3c1.922.022,3.849-.015,5.775-.018q2.528,0,5.057.01c1.926.009,3.851.031,5.777.037,1.685,0,3.376-.028,5.056,0,1.9.032,3.795.133,5.7.169,1.677.032,3.367,0,5.046.026s3.361.093,5.043.108c1.923.019,3.849-.005,5.774,0,1.681,0,3.363.019,5.044.026,1.926.008,3.853,0,5.776.024,1.592.022,3.179.086,5.059.139-1.866.656-1.866.656-13.267,1.006l-3.923,1.525c-1.427.06-3.072.181-4.723.188a85.829,85.829,0,0,0-15.227,1.1,28.624,28.624,0,0,1-4.163.25q-17.631.334-35.267.637c-1.921.033-3.86.05-5.775.007a52.6,52.6,0,0,0-7,.207c-1.987.217-4.264.226-6.42.246-32.717.3-65.431.717-98.156.846-26.947.106-53.909-.144-80.864-.208-20.944-.05-41.862.236-62.773.567-1.348.021-2.674.177-3.855.259-.308.507.746.786,1.439.674a34.977,34.977,0,0,1,12.726.386,21.589,21.589,0,0,0,8.247,0c3.938-1,8.251-.533,12.4-.491a68.785,68.785,0,0,1,7.617.577,26.739,26.739,0,0,0,10.028-.425,12.543,12.543,0,0,1,3.933-.35c2.372.117,4.9.1,7.1.354,4.092.479,8.029.967,12.347.289,5.864.3,11.95.262,17.556.952a98.807,98.807,0,0,0,11.7.382c2.135.007,4.27-.117,6.409-.126,6.9-.028,13.765.189,20.688-.256,4.621-.3,9.521-.185,14.3-.246a11.961,11.961,0,0,1,2.1.068c4.943,1.039,10.21.332,15.3.242a24.147,24.147,0,0,1,6.131.173,20.553,20.553,0,0,0,2.673.042c3.087.1,6.165.22,9.254.31,2.864.083,5.735.186,8.6.194,4.306.013,8.613-.05,12.92-.076a11.847,11.847,0,0,1,1.429.042c7.672.959,15.664.419,23.516.457,5.966.029,11.885-.1,17.877.209,4.184.216,8.61-.037,12.926-.027,2.595,0,5.208.077,7.768.2a5.412,5.412,0,0,1,1.686.622,13.443,13.443,0,0,1-1.584.242q-12.609.045-25.219.07c-4.8.016-9.6.1-14.4.071-6.218-.037-12.44-.11-18.64-.254a105.179,105.179,0,0,0-10.758.01,8.912,8.912,0,0,1-2.1,0c-2.7-.813-5.556-.264-8.414-.173-6.348.2-12.7-.064-19.047-.055-5.249.007-10.5.195-15.742.307-.954.02-1.916.106-2.854.084-11.045-.261-22.075,0-33.114.045-7.159.029-14.36-.354-21.484-.233-6.015.1-11.879-.3-17.88-.15-4.734.121-9.545-.033-14.321-.072-7.676-.061-15.352-.157-23.03-.184-7.182-.025-14.368.039-21.551.029q-9-.01-18.008-.1c-5.968-.056-11.929-.17-17.9-.218-4.328-.036-8.568-.172-12.864-.39-3.63-.185-7.472-.308-11.3-.162-2.8.106-5.674.012-8.515.006-14.453-.03-28.8.444-43.171.833-11.491.312-22.993.585-34.489.882-5.715.147-11.425.311-17.7.483.515-.453.623-.923,1.439-1.186a52.392,52.392,0,0,1,5.539-1.385c1.66-.335,3.043-.682,3.457-1.334a26.323,26.323,0,0,0-7.068-.8c-3.081.031-6.191-.194-9.285-.315-.713-.028-1.425-.142-2.115-.125-7.939.2-15.712-.36-23.582-.482-7.682-.119-15.35-.332-23.025-.5-1.2-.027-2.4-.068-3.6-.074-4.406-.024-7.316-.616-8.183-2.049.386-.764,1.215-1.531,3.157-2.134,1.546-.48.241-.953.066-1.424L9.519,87.05H17.19c-3.307-.58-6.734-.575-8.649-1.389-.05-.164-.25-.323-.113-.447.9-.814,3.645-1.678,2.246-2.425C9.1,81.949,11.3,81,8.907,80.3c-.71-.208-.725-.5-.041-.794.39-.165.737-.423.606-.606-1.18-1.642,1.087-3.043,2.939-4.5.919-.724.956-1.553,1.362-2.28-1.013-.683-3.01-.413-4.5-.561-1.639-.162-3.248-.342-2.989-1.124.831-.048,1.711-.128,2.6-.144,1.917-.035,3.924.065,5.747-.072,9.283-.7,18.681-.393,28.011-.282,3.63.044,7.061-.11,10.61-.222a89.994,89.994,0,0,0-11.957-.7c-4.08-.005-8.161-.143-12.236-.245-4.3-.106-8.6-.238-12.278-.342L11.747,66c.268-.532,1.983-.651,3.649-.684,2.879-.058,5.775-.057,8.663-.055,1.848,0,3.117-.152,3.928-.738a7.711,7.711,0,0,1,2.807-.475c6.731-.012,13.488-.059,20.192.089,12.467.276,24.9.688,37.354,1.02,4.55.122,9.116.2,13.679.258,10.578.141,21.155.316,31.739.372,8.658.045,17.326-.056,25.988-.11.85,0,2,.04,2.2-.37-.078-.064-.137-.167-.216-.168-3.825-.068-7.655-.191-11.479-.178-21.2.073-42.342-.232-63.46-.794-15.106-.4-30.233-.727-45.35-1.091-5.038-.122-10.085-.223-15.1-.4-3.154-.112-6.838.166-8.851-1.026a18.1,18.1,0,0,0-3.377-.173A54.186,54.186,0,0,1,4,60.747c2.973-.609,2.728-1.733,5.147-2.642l-3.633-.739,7.008-2.67c-3.39-.663-3.418-1.625-2.512-2.743,3.518-.8,9.7-.408,11.678-2.214-2.536-.92-6.448-.4-9.666-.948a3.707,3.707,0,0,0-1.506-1.023,27.186,27.186,0,0,0-3.8-.56c-1.771-.218-3.574-.412-5.17-.593-1.137-.6-1.98-1.16-1-1.744C1.8,44.115.932,43.442,0,42.719a26.573,26.573,0,0,0,2.658-1.5c.685-.508,1.811-.96.664-1.646-.772-.462-.708-1.247.069-1.72,1.451-.884,1.172-1.7.141-2.5,1.667-.547,4.711-.33,5.137-1.347-1.461-.65-3.542-1.387-3.2-2.533,1.958-.794,3.855-1.725,3.754-2.964l-4.81-1.156,5.458-.337c-2.222-1.417.256-2.57,1.273-3.892l6.473.132a1.853,1.853,0,0,1,.525-1.954L13.456,20.21l2.768-1.8L32.356,18.2l1.506-.924-.1.051L49.5,17.018c-4.919-.309-9.115-.6-13.343-.831-3.312-.182-6.657-.317-10-.433a17.276,17.276,0,0,1-7-1.319A37.756,37.756,0,0,1,28.14,14a167.56,167.56,0,0,0,17.884.317c1.172-.012,2.346,0,3.574-.105A197.68,197.68,0,0,1,18.016,12.12l5.516-1.528c-.949-.5-2.01-.987-2.822-1.509-1.389-.893-.607-1.424,2.459-1.6,2.69-.157,5.444-.215,8.51-.329-.475-.92-4.244-.643-5.292-1.547l1.487-2.875a12.564,12.564,0,0,1,4.8-.646q5.416.006,10.834-.031c2.2-.011,4.378-.061,5.646-.746a10.461,10.461,0,0,1,4.283-.67c.24,0,.479-.013.721-.017C70.981.369,87.81.046,104.651.356c7.4.136,14.758.477,22.138.719.955.032,1.922.044,2.881.04,9.869-.035,19.74-.046,29.605-.119q20.578-.153,41.15-.383c16.118-.18,32.226-.469,48.348-.576,13.221-.087,26.457,0,39.685.056,10.109.044,20.216.147,30.321.254,8.651.091,17.3.226,26.143.344a10.8,10.8,0,0,0,2.743,1.225,40.981,40.981,0,0,0,4.775.423c.7.052,1.457.036,2.135.1,3.187.31,6.29.755,9.55.928,3.01.159,6.181.033,9.337.033.94-.857.94-.857,3.372-.828q.328.423.661.844a2.681,2.681,0,0,0,.542.136c2.077.105,4.159.2,6.2.294.627-.139,1.165-.3,1.8-.394,1.938-.292,1.943-1.287,4.55-1.264,2.581.022,5.148.189,7.674.291.361.723-.055,1.136-2.277,1.216-1.344.049-2.673.136-4.6.237,7.142.748,7.142.748,11.314-.607a22.488,22.488,0,0,0,10.157-.286,30.765,30.765,0,0,1,3.16-.531c1.732.266,3.276.578,4.972.741,1.488.143,3.147.119,5.214.184l-1.448,1.011c-2.6-.2-5.054-.755-8-.057V6.441a23.7,23.7,0,0,0,7.442-.2c1-.2,2.028-.393,3.092-.559,4.246-.663,4.32-.721,2.353-2.109,4.176-.154,8.38-.351,12.608-.445,1.777-.04,3.6.137,5.963.24-1.77.548-4.435.613-4.364,1.416.049.561-.716,1.119,1.218,1.612,1.542.394-.82.735-.914,1.137-1.96-.211-3.906-.417-6.125-.651a1.579,1.579,0,0,0-.524-.732,3.536,3.536,0,0,0-1.49-.345,3.619,3.619,0,0,0-1.6.345,9.094,9.094,0,0,0-.877,1.859,40.2,40.2,0,0,0,10.49-.529l5.315.195a17.72,17.72,0,0,1,7.233-1.751c4.323-.291,4.3-.329,9.362.721A17.35,17.35,0,0,1,468.638,4.4a49.87,49.87,0,0,1,4.647-2.058,28.854,28.854,0,0,0,4.042.823c1.535.109,3.287-.111,4.94-.1,1.329.008,2.654.139,3.973.226,3.956.261,8.021-.4,11.963.131a4.066,4.066,0,0,0,1.281-.109c3.364-1.1,7.44-.673,11.4-.526,1.142.043,2.31.036,3.431.107,1.807.113,3.584.272,5.334.409,1.418,1.5,3.251,2.863-.109,4.272-2.452,1.028-3.8,1.311-9.089,1.495a4.837,4.837,0,0,1-.457-1.674c.027-.34.293-.8,1.037-.99,2.288-.593,2.022-1.355,2.1-2.11-4.877-.733-6.833-.587-10.354.766-.247.105-.522.205-.74.315a1.767,1.767,0,0,0,.351.125q.1-.243.2-.485m-84.99,5.669a31.746,31.746,0,0,0,9.959.27c.657-.058,1.505-.443,1.4-.633a4.034,4.034,0,0,0-1.918-.526,37.161,37.161,0,0,0-8.86.429c-.3.046-.335.251-.586.46M403.041,20.4c-6.067-.253-16.922-.2-22.1.148A117.667,117.667,0,0,1,394.3,21.1a36.014,36.014,0,0,0,5.69-.03,19.188,19.188,0,0,0,3.054-.673M136.677,16.042c-9.762-.517-9.762-.517-13.2.145,4.741.587,8.98.1,13.2-.145m59.638,79.27c4.836.942,7.456.939,9.858,0a66.189,66.189,0,0,0-9.858,0M163.643,16.079a108.783,108.783,0,0,0-15.418-.272c-.12.005-.158.226-.323.487l15.741-.215m-121.662,4.9a101.084,101.084,0,0,0-16.8.055c6.26.08,10.951.286,16.8-.055M236.4,65.594c-3.728-1.113-6.1-1.069-7,0Zm-131.428.713c-1.837-.022-3.675-.037-5.51-.07-1.8-.032-3.606-.082-5.408-.124a37.446,37.446,0,0,0,10.918.194M89.513,16.278l-.024.225q4.409,0,8.816-.009c.088,0,.169-.124.333-.253a7.291,7.291,0,0,0-3-.112c-.923.062-1.86.123-2.8.144-1.1.024-2.215,0-3.322,0m157.594-1.54c-2.238-.167-4.454-.3-6.3.407a16.33,16.33,0,0,0,6.3-.407M594.12,59.585c-2.188,1-2.188,1-.528,1.459l.528-1.459M213.092,15.637c-.333-.248-.505-.47-.649-.468-1.041.012-2.081.062-3.1.129-.086.005-.025.221-.032.339Zm236.1,10.9c-1.39-.029-2.139-.1-2.767-.042a3.887,3.887,0,0,0-1.544.376c-.136.138.363.435.827.5a6.912,6.912,0,0,0,1.922-.086,6.851,6.851,0,0,0,1.562-.75M185.171,65.3a31.056,31.056,0,0,0-8.418,0Zm62.161-.007-.217-.206-3.217.1c.026.077.052.154.079.231l3.355-.12M187.849,15.469a22.4,22.4,0,0,0-6.157.167,15.128,15.128,0,0,0,6.157-.167M465.827,66.026c-.192-.19-.208-.37-.451-.406a3.871,3.871,0,0,0-1.182.057c-.217.06-.112.229-.15.349ZM216.609,15.692a9.919,9.919,0,0,0,1.183-.409c.063-.031-.624-.261-.69-.25-.511.088-.954.214-1.418.327l.924.332M57.541,65.759l.027-.185H55.23c-.007.046-.015.092-.022.139l2.333.046M29.325,8.05c.235,0,.483.014.689-.008.075-.008.048-.1.067-.16a6.044,6.044,0,0,0-.669-.008c-.076.007-.058.108-.087.176M75,16.706l1.2-.139a2.727,2.727,0,0,0-.68-.227,5.417,5.417,0,0,0-.933.217l.415.149M34.651,87.361l-1.015-.053a2.939,2.939,0,0,0,.45.087,5.014,5.014,0,0,0,.565-.034M605.091,60.344l.088-.189-.906.034c.073.056.1.137.232.162a3.761,3.761,0,0,0,.586-.007m.419-10.833-.467-.338c-.167.043-.468.084-.475.129-.021.118.088.238.145.357l.8-.148M202.866,15.486l-.526-.053.333.172.193-.119m356.563-9.6c-1.031-.194-3.092.094-3.008-.614.061-.519,1.855-.364,2.585-.61,2.69-.907,5.733-.764,9.119-.155l1.439-1.285c-4.854.125-4.854.125-8.783-.8-1.254,1.527-7.792.489-9.52,2.042-.206-.748-1.584-1.218-3.477-1.569-5.066.553-5.066.553-11.157-.253-1.8,1.171-1.747,1.175,2.2,1.183a10.727,10.727,0,0,1,1.293.156L541.055,5c.915.231,2.592-.036,2.91.482-4.547.444-7.143.941-7.226,1.473.4.175.925.414,1.491.643.524.212,1.1.412,1.883.707.557-.4,1.157-.866,1.2-.862,2.4.269,3.953-.616,6.012-.466,4.812.351,9.4-.4,14.719-.428-.865-.225-1.66-.485-2.615-.666m36.064.139c3.069.136,4.155-.848,6.516-1.2,1.129.467,2.082.862,3.063,1.251.02.008.359-.06.7-.119,1.121-.861-1.252-1.735-.28-2.629a5.315,5.315,0,0,0-1.058-.294c-.576.1-1.181.206-1.795.309-.791.131-1.587.26-2.8.458-.964-1.007-3.073-1.128-5.714-.843a17.032,17.032,0,0,1-2.508.188c-2.448-1.079-3.628-.12-4.75.308-1.612.614-2.851,1.321-4.421,2.071l-5.372-.617L575.94,3.537c-2.894.66-1.115,1.541-1.568,2.378-1.683.138-3.269.252-4.822.4-1.481.14-2.593.367-1.328,1.05,1.217,0,2.639.027,4.047,0,4.016-.092,7.742-.642,11.805-.707,1.36-.022,2.685-.257,4.234-.416.154-.688.3-1.323.471-2.106l5.426.123,1.432,1.821ZM544.12,25.573l1.5.941c3.256-.305,3.467-1.215,4.221-2.25A5.251,5.251,0,0,0,550.9,25a11.486,11.486,0,0,0,1.411.327c.2-.186.663-.388.551-.554-.567-.846-2.679-1.33-4.737-1.866a24.54,24.54,0,0,0-7.155,1.783c-1.633.589-2.467,1.189-2.473,1.922,3.355.291,2.452-1.262,5.627-1.039m-18.033-6.042c1.31.091,2.806.347,3.527-.68-4.615.4-9,.356-13.541.546-.445,1.192-3.181,1.744-6.675,2.132.7.271,1.162.411,1.47.579a8.87,8.87,0,0,1,.92.609l5.26-.256c.1-1.065,1.515-1.857,5.57-2.1a24.165,24.165,0,0,0,3.551-.694c.088,0,.062-.05-.082-.14m5.266-13.012,1.47-3.338-4.644.793L525.184,3.5c-1.817,1.206-1.716,2.427-2.2,3.9l8.368-.873m-43.3,92.994q13.931-.009,27.861-.041a3.111,3.111,0,0,0,.664-.071c.092-.023.016-.108.016-.2-3.411-.232-6.83-.475-10.266-.693-1.132-.072-2.308-.111-3.462-.108-2.113,0-4.228.04-6.338.084-2.828.059-5.667.107-8.468.231a6.28,6.28,0,0,0-1.74.581,17.375,17.375,0,0,0,1.733.221M611.423,3.9c-.267.581-.491,1.072-.748,1.634l4.93.417L622.2,4.193c-3.722-1.112-7.247-.277-10.776-.29M602.57,34.062a5.583,5.583,0,0,0-2.463-.663c-1.832-.052-3.725.1-5.632.164-.457.826-.884,1.541-1.212,2.26-.045.1.4.222.773.414l3.708-.842c.075-.432.148-.853.215-1.241,4.021-.212,1.677.781,2.854,1.082,2.3-.145,2.43-.671,1.757-1.174m-35.777-9.777c1.556-.367,1.868-.842,1.129-1.377-.792-.573-2.243-.725-4.173-.536l-2.3,3.17c2.4-.565,3.876-.91,5.345-1.257M33.749,17.335c-.47-.037-.913-.1-1.376-.124-4.346-.222-8.907-.209-12.38-1.288a4.984,4.984,0,0,0-3.031.278c.273.169.411.438.909.536a63.141,63.141,0,0,0,14.932.819,4.68,4.68,0,0,0,1.06-.28s-.1.051-.113.059M591.608,34.643c-.147-.207-.3-.414-.467-.652l-4.472-.153-1.359,1.492,4.2.868c.377-.592,2.6-.852,2.1-1.555M540.853,20.979c-2.124.375-1.636.748-.9,1.319,3.407-.553,5.053-1.581,8.152-2.41l-5.449-.4c-.7.625-.777,1.313-1.806,1.494m18.225-2.068c-.026-.1-.536-.188-1.114-.378l-3.339.959,1.835,1.7c2.493-.693,2.831-1.465,2.619-2.281M407.362,14.66c-2.784-.1-5.579-.149-8.375-.176a12.538,12.538,0,0,0-1.578.222c3.521.481,6.737-.036,9.953-.046M40.287,100.246c3.752.123,3.763.128,6.478-.857a23.592,23.592,0,0,0-6.478.857m528.321-25.1c.008.574,1.72.281,2.435.462.79.2,1.435.453,2.992.959-.755-1.3-.755-1.3-5.427-1.421m30.6-56.765c.022-.049-.25-.147-.434-.161a6.535,6.535,0,0,0-3.72.771c-.07.024.049.1.2.346,1.608-.267,3.618-.2,3.958-.956m-73.575,1.912a7.364,7.364,0,0,0,1.737.583,1.859,1.859,0,0,0,.513-.062c0-.2.129-.426-.137-.591a12.98,12.98,0,0,0-1.661-.688c.144.09.169.137.082.14-.2.209-.737.458-.534.618M647.924,44.622c-1.029-.048-1.819.006-1.887.387-.012.062.1.18.18.183a23.093,23.093,0,0,0,2.49.018,5.6,5.6,0,0,0,1.444-.519c-1-.03-1.617-.041-2.227-.069M590.31,72.146a18.526,18.526,0,0,0-2.234.3,4.256,4.256,0,0,0,1.234.4c.73.032,1.529-.084,2.869-.176a8.947,8.947,0,0,0-1.869-.527m34.972-16.807-1.712.235.735.429,1.527-.275-.55-.389M455.488,10.44l-2.547.721.825.184,1.539-.956.183.051M587.77,18.08a15.015,15.015,0,0,0-1.556.245c-.123.033.225.345.43.353a14.031,14.031,0,0,0,1.579-.107l-.453-.491m18.3,3.291c-1.394-.005-3.4-.537-3.864.437l4.042-.485Zm-18.145,1.275a1.292,1.292,0,0,0,.519.12c1.107.029,1.015-.2.855-.417a2.848,2.848,0,0,0-.654-.332,8.018,8.018,0,0,0-.721.629m-12.462,2.162c1.4-.2,1.166-.512.684-.852-1.321.2-1.387.492-.684.852M581.69,3.817c-.108.051-.335.111-.3.152a1.919,1.919,0,0,0,.422.278l.329-.157-.449-.273m45.2.082a1.6,1.6,0,0,0-.624.285,7.491,7.491,0,0,0,1.2.094,1.9,1.9,0,0,0,.7-.3A9.4,9.4,0,0,0,626.89,3.9M424.624,14.635h-.553l.273.078Zm194.184,3.7a6.114,6.114,0,0,0,1.078.112,2.648,2.648,0,0,0,.777-.3l-1.236-.129-.618.312m-7.5,3.2a2.25,2.25,0,0,0-.721.309,7.378,7.378,0,0,0,1.216.1c.287-.031.4-.208.6-.322a6.285,6.285,0,0,0-1.092-.083M654.477,44.5a1.317,1.317,0,0,0-.479.129,6.268,6.268,0,0,0,.648.245l.9-.24c-.359-.048-.7-.113-1.072-.134m-15.844.493c-.046.035.321.168.377.161.349-.042.661-.111.987-.172-.244-.093-.487-.186-.733-.278a3.673,3.673,0,0,0-.631.289m-61.05,30.829c.062-.056.033-.122.041-.184a2.987,2.987,0,0,0-.539.063c-.069.034.081.11.134.167a1.92,1.92,0,0,0,.364-.046m28.642-54.492a5.958,5.958,0,0,0,.053.626c.168-.031.494-.079.482-.089-.206-.168-.454-.331-.692-.495l.156-.042m11.264.018a1.942,1.942,0,0,0,.361.164c.4-.046.768-.114,1.147-.175l-.449-.153-1.059.164m13.3-3.167a2.352,2.352,0,0,0,.463.1,3.448,3.448,0,0,0,.544-.078l-1.007-.018m-27.159.038a2.829,2.829,0,0,0-.438.049c-.017.053.085.11.188.215l.25-.264m-8-12.144a12.189,12.189,0,0,0-1.317-.057,7.357,7.357,0,0,0-1.072.207c.565.055,1.128.142,1.7.146.174,0,.367-.224.551-.345l.14.049M654.3,3.611c-.04.028.164.089.259.135l.714-.17-.527-.066a2.114,2.114,0,0,0-.446.1m-195.758.178a1.979,1.979,0,0,0,.406.329c.155-.042.461-.1.438-.126a2.161,2.161,0,0,0-.419-.327c-.144.04-.446.092-.424.124M365.364,2.695l.507.06-.008-.118Z" transform="translate(0 0)" fill="#f6e455"/>
  </g>
</svg>
