<svg xmlns="http://www.w3.org/2000/svg" xmlns:xlink="http://www.w3.org/1999/xlink" width="128.765" height="138.197" viewBox="0 0 128.765 138.197">
  <defs>
    <clipPath id="clip-path">
      <rect id="Rectangle_36" data-name="Rectangle 36" width="128.765" height="138.197" fill="#fff" stroke="#f6e455" stroke-width="1"/>
    </clipPath>
    <clipPath id="clip-path-2">
      <rect id="Rectangle_35" data-name="Rectangle 35" width="128.766" height="138.196" fill="#fff" stroke="#f6e455" stroke-width="1"/>
    </clipPath>
  </defs>
  <g id="forme" clip-path="url(#clip-path)">
    <g id="Groupe_72" data-name="Groupe 72" transform="translate(0 0.001)">
      <g id="Groupe_71" data-name="Groupe 71" clip-path="url(#clip-path-2)">
        <g id="Groupe_70" data-name="Groupe 70" transform="translate(0 -0.001)" style="mix-blend-mode: multiply;isolation: isolate">
          <g id="Groupe_69" data-name="Groupe 69" transform="translate(0 0)">
            <g id="Groupe_68" data-name="Groupe 68" clip-path="url(#clip-path)">
              <path id="Tracé_868" data-name="Tracé 868" d="M6.356,58.266a.453.453,0,0,0-.293.2,4.314,4.314,0,0,0-.1.789c-.239.517.344,1,.566,1.594a.371.371,0,0,0,.331.1q.732-.637,1.417-1.325a.375.375,0,0,0,.016-.36c-.469-.666-1-1.236-1.935-1" transform="translate(3.454 34.052)" fill="#fff" stroke="#f6e455" stroke-width="1" fill-rule="evenodd"/>
              <path id="Tracé_869" data-name="Tracé 869" d="M5.438,59.667a.9.9,0,0,0-1.019-.682,1.1,1.1,0,0,0-.342.124c-.032.025.013.225.078.284A1.342,1.342,0,0,1,4.7,60.735a2.222,2.222,0,0,0,.017.766.369.369,0,0,0,.273.211c.493.04,1.044-.621.792-.989a3.253,3.253,0,0,1-.342-1.056" transform="translate(2.379 34.499)" fill="#fff" stroke="#f6e455" stroke-width="1" fill-rule="evenodd"/>
              <path id="Tracé_870" data-name="Tracé 870" d="M9.363,62.036c-.1-.13-.211-.358-.423-.233-.158.092-.393.372-.371.4.334.449-.147.8-.113,1.2,0,.054.073.1.139.19l.434-.247c.72-.407.8-.707.333-1.311" transform="translate(4.946 36.132)" fill="#fff" stroke="#f6e455" stroke-width="1" fill-rule="evenodd"/>
              <path id="Tracé_871" data-name="Tracé 871" d="M3.731,55.583a.3.3,0,0,0-.247.17,3.074,3.074,0,0,0-.013.58h.035c0,.26-.019.521.006.78.017.166.135.228.238.163a.989.989,0,0,0,.518-.965.916.916,0,0,0-.537-.728" transform="translate(2.026 32.513)" fill="#fff" stroke="#f6e455" stroke-width="1" fill-rule="evenodd"/>
              <path id="Tracé_872" data-name="Tracé 872" d="M24.519,72.723a.273.273,0,0,0-.036-.146c-.409-.547-1.051-.651-1.587-.929-.122.174-.231.266-.243.369s.049.3.116.319c.155.038.309.086.463.13a.985.985,0,0,0,.273.244.12.12,0,0,0,0-.165,3.918,3.918,0,0,1,.675.3c.071.04.228-.068.341-.119" transform="translate(13.25 41.912)" fill="#fff" stroke="#f6e455" stroke-width="1" fill-rule="evenodd"/>
              <path id="Tracé_873" data-name="Tracé 873" d="M5.737,61.233a.45.45,0,0,0-.523.39c-.046.471.081.726.371.747a1.1,1.1,0,0,0,.742-.5c.044-.171-.293-.536-.59-.637" transform="translate(3.045 35.811)" fill="#fff" stroke="#f6e455" stroke-width="1" fill-rule="evenodd"/>
              <path id="Tracé_874" data-name="Tracé 874" d="M8,60.395c-.024-.049-.084-.079-.128-.119-.041.049-.116.1-.117.147q-.019.747-.011,1.5a.2.2,0,0,0,.1.151c.044.01.111-.052.16-.092.5-.4.517-.5.209-1.076-.087-.162-.138-.341-.216-.507" transform="translate(4.527 35.259)" fill="#fff" stroke="#f6e455" stroke-width="1" fill-rule="evenodd"/>
              <path id="Tracé_875" data-name="Tracé 875" d="M6.7,57.44c-.006-.054-.082-.144-.12-.141a.86.86,0,0,0-.586.857c.008.055.074.1.114.155A.981.981,0,0,0,6.7,57.44" transform="translate(3.501 33.518)" fill="#fff" stroke="#f6e455" stroke-width="1" fill-rule="evenodd"/>
              <path id="Tracé_876" data-name="Tracé 876" d="M6.523,62.648c-.049.163-.124.338.081.469.081-.048.244-.12.238-.144a3.1,3.1,0,0,0-.2-.453c-.041.041-.1.078-.119.128" transform="translate(3.784 36.572)" fill="#fff" stroke="#f6e455" stroke-width="1" fill-rule="evenodd"/>
              <path id="Tracé_877" data-name="Tracé 877" d="M26.579,78.261c.111,0,.222-.09.333-.141-.109-.054-.217-.147-.328-.149a.272.272,0,0,0-.1.029c-.184-.109-.431-.219-.495-.1.1.055.138.124.084.208a1.392,1.392,0,0,0,.361.111.306.306,0,0,0,.139.048" transform="translate(15.206 45.537)" fill="#fff" stroke="#f6e455" stroke-width="1" fill-rule="evenodd"/>
              <path id="Tracé_878" data-name="Tracé 878" d="M12.323,21.484c-.067.038-.089.154-.122.254.1-.025.206-.041.254-.1a.1.1,0,0,0-.132-.149" transform="translate(7.137 12.557)" fill="#fff" stroke="#f6e455" stroke-width="1" fill-rule="evenodd"/>
              <path id="Tracé_879" data-name="Tracé 879" d="M12.221,21.637c-.017,0-.036.008-.054.014v.04l.038,0c.006-.016.011-.033.016-.049" transform="translate(7.117 12.657)" fill="#fff" stroke="#f6e455" stroke-width="1" fill-rule="evenodd"/>
              <path id="Tracé_880" data-name="Tracé 880" d="M12.018,21.912c.013.052.144.074.242.1,0-.116,0-.231,0-.346-.143.017-.3.04-.244.241" transform="translate(7.024 12.677)" fill="#fff" stroke="#f6e455" stroke-width="1" fill-rule="evenodd"/>
              <path id="Tracé_881" data-name="Tracé 881" d="M12.167,21.888v.049l.024,0,.014-.035-.038-.011" transform="translate(7.117 12.804)" fill="#fff" stroke="#f6e455" stroke-width="1" fill-rule="evenodd"/>
              <path id="Tracé_882" data-name="Tracé 882" d="M3.8,28.706c-.011,0-.024.117-.006.125a2.247,2.247,0,0,0,.247.1c-.017-.132-.03-.266-.241-.227" transform="translate(2.217 16.788)" fill="#fff" stroke="#f6e455" stroke-width="1" fill-rule="evenodd"/>
              <path id="Tracé_883" data-name="Tracé 883" d="M3.951,28.846l.01.065c.019,0,.036,0,.055,0,0-.017-.014-.03-.013-.049l-.052-.021" transform="translate(2.311 16.874)" fill="#fff" stroke="#f6e455" stroke-width="1" fill-rule="evenodd"/>
              <path id="Tracé_884" data-name="Tracé 884" d="M2.891,30.681l.138-.128c-.071-.189-.165-.2-.26-.014-.011.021.079.094.122.143" transform="translate(1.619 17.787)" fill="#fff" stroke="#f6e455" stroke-width="1" fill-rule="evenodd"/>
              <path id="Tracé_885" data-name="Tracé 885" d="M2.105,31.69c-.051.011-.074.147-.106.249h.338c-.025-.133-.035-.29-.231-.249" transform="translate(1.169 18.534)" fill="#fff" stroke="#f6e455" stroke-width="1" fill-rule="evenodd"/>
              <path id="Tracé_886" data-name="Tracé 886" d="M1.772,32.093H1.72l-.01.067.055-.024a.347.347,0,0,1,.006-.043" transform="translate(1 18.773)" fill="#fff" stroke="#f6e455" stroke-width="1" fill-rule="evenodd"/>
              <path id="Tracé_887" data-name="Tracé 887" d="M2.09,31.874a.348.348,0,0,0-.342.346l.342,0v-.35" transform="translate(1.023 18.645)" fill="#fff" stroke="#f6e455" stroke-width="1" fill-rule="evenodd"/>
              <path id="Tracé_888" data-name="Tracé 888" d="M1.8,32.134a2.341,2.341,0,0,0-.233.1c-.016.01,0,.117,0,.119.2.03.214-.094.23-.219" transform="translate(0.911 18.797)" fill="#fff" stroke="#f6e455" stroke-width="1" fill-rule="evenodd"/>
              <path id="Tracé_889" data-name="Tracé 889" d="M16.331,70.707c.038-.036.106-.071.108-.109s-.06-.081-.1-.12l-.114.171c.035.019.068.04.1.059" transform="translate(9.494 41.227)" fill="#fff" stroke="#f6e455" stroke-width="1" fill-rule="evenodd"/>
              <path id="Tracé_890" data-name="Tracé 890" d="M20.183,71.828c.059.149.143.176.214.076.021-.029.01-.081.011-.124-.036-.021-.084-.068-.108-.059-.048.019-.125.087-.117.106" transform="translate(11.806 41.954)" fill="#fff" stroke="#f6e455" stroke-width="1" fill-rule="evenodd"/>
              <path id="Tracé_891" data-name="Tracé 891" d="M24.67,77.559c0,.038.065.086.1.128l.136-.116c-.04-.044-.079-.089-.12-.133-.041.04-.111.076-.117.12" transform="translate(14.431 45.299)" fill="#fff" stroke="#f6e455" stroke-width="1" fill-rule="evenodd"/>
              <path id="Tracé_892" data-name="Tracé 892" d="M29.381,78.06c-.03-.038-.081-.128-.1-.122-.181.063-.187.157-.017.244.014.008.076-.078.116-.122" transform="translate(17.047 45.591)" fill="#fff" stroke="#f6e455" stroke-width="1" fill-rule="evenodd"/>
              <path id="Tracé_893" data-name="Tracé 893" d="M69.605,15.2c.193-.322.089-.773-.366-1.308-.341.271.307.88.366,1.308" transform="translate(40.445 8.127)" fill="#fff" stroke="#f6e455" stroke-width="1" fill-rule="evenodd"/>
              <path id="Tracé_894" data-name="Tracé 894" d="M41.585,4.568c-.781-.073.956-.206.021-.374.022.271-.791.019-1.119.076-.165.3.924.569,1.1.3" transform="translate(23.673 2.453)" fill="#fff" stroke="#f6e455" stroke-width="1" fill-rule="evenodd"/>
              <path id="Tracé_895" data-name="Tracé 895" d="M25.037,5.854c-.575.19-.632.442-.453.723.569-.19.628-.442.453-.723" transform="translate(14.328 3.424)" fill="#fff" stroke="#f6e455" stroke-width="1" fill-rule="evenodd"/>
              <path id="Tracé_896" data-name="Tracé 896" d="M47.868,4.972a8.1,8.1,0,0,1-1.16.16c.011-.276-2.769-.9-3.3-.464,1.444.211,2.764.371,4.094.624l2.041.353c.7.141,1.422.287,2.19.444-.3-.445-1.044-.585-1.815-.691a5.569,5.569,0,0,1-2.051-.426" transform="translate(25.392 2.642)" fill="#fff" stroke="#f6e455" stroke-width="1" fill-rule="evenodd"/>
              <path id="Tracé_897" data-name="Tracé 897" d="M43.711,4.1c-.748-.071-.8.333-1.594.228.281.312-.607.418-.038.5.287-.415,1.293-.341,1.633-.727" transform="translate(24.501 2.396)" fill="#fff" stroke="#f6e455" stroke-width="1" fill-rule="evenodd"/>
              <path id="Tracé_898" data-name="Tracé 898" d="M2.047,32.218a11.462,11.462,0,0,1,.718-1.986c-.157-.043-.39.5-.561,1.032s-.217,1.062-.157.954" transform="translate(1.183 17.683)" fill="#fff" stroke="#f6e455" stroke-width="1" fill-rule="evenodd"/>
              <path id="Tracé_899" data-name="Tracé 899" d="M20.875,14.409c.346-.233.495-.049.872-.349-.048-.287-1.1.143-.872.349" transform="translate(12.192 8.169)" fill="#fff" stroke="#f6e455" stroke-width="1" fill-rule="evenodd"/>
              <path id="Tracé_900" data-name="Tracé 900" d="M48.258,1.25l.482.114c.065-.146-.147-.223-.1-.365a1.008,1.008,0,0,0-.677.011c.475.087.55.149.293.239" transform="translate(28.058 0.555)" fill="#fff" stroke="#f6e455" stroke-width="1" fill-rule="evenodd"/>
              <path id="Tracé_901" data-name="Tracé 901" d="M50.73,7.2l.686.239c.182-.334-.64-.514-.686-.239" transform="translate(29.675 4.131)" fill="#fff" stroke="#f6e455" stroke-width="1" fill-rule="evenodd"/>
              <path id="Tracé_902" data-name="Tracé 902" d="M53.037,5.573c-.1-.117-.873-.5-1.019-.36.4.068.72.52,1.019.36" transform="translate(30.429 3.032)" fill="#fff" stroke="#f6e455" stroke-width="1" fill-rule="evenodd"/>
              <path id="Tracé_903" data-name="Tracé 903" d="M53.41,7.875a2.024,2.024,0,0,0-1.018-.192c.333.055,1.018.528,1.018.192" transform="translate(30.647 4.486)" fill="#fff" stroke="#f6e455" stroke-width="1" fill-rule="evenodd"/>
              <path id="Tracé_904" data-name="Tracé 904" d="M54.47,7.85c.178-.1-.132-.288-.417-.391-.292-.086-.555-.094-.263.1.209-.189.306.238.68.293" transform="translate(31.391 4.329)" fill="#fff" stroke="#f6e455" stroke-width="1" fill-rule="evenodd"/>
              <path id="Tracé_905" data-name="Tracé 905" d="M54.341,7.782c.579.311.715.2,1.076.5.211-.235-1.056-.721-1.076-.5" transform="translate(31.788 4.519)" fill="#fff" stroke="#f6e455" stroke-width="1" fill-rule="evenodd"/>
              <path id="Tracé_906" data-name="Tracé 906" d="M59.059,10.063c-.29-.244-.4-.25-.52-.6-.054.1-.262-.065-.336,0,.086.157.545.686.856.6" transform="translate(34.047 5.525)" fill="#fff" stroke="#f6e455" stroke-width="1" fill-rule="evenodd"/>
              <path id="Tracé_907" data-name="Tracé 907" d="M61.78,6.4c-.355-.143-1.043-.8-1.083-.45.414.228.943.643,1.083.45" transform="translate(35.506 3.425)" fill="#fff" stroke="#f6e455" stroke-width="1" fill-rule="evenodd"/>
              <path id="Tracé_908" data-name="Tracé 908" d="M61.214,12.52a7.644,7.644,0,0,1,1.071,1c.082-.236-.761-.959-1.071-1" transform="translate(35.808 7.324)" fill="#fff" stroke="#f6e455" stroke-width="1" fill-rule="evenodd"/>
              <path id="Tracé_909" data-name="Tracé 909" d="M65.1,12.558a2.022,2.022,0,0,0,.8.487.869.869,0,0,0-.8-.487" transform="translate(38.079 7.341)" fill="#fff" stroke="#f6e455" stroke-width="1" fill-rule="evenodd"/>
              <path id="Tracé_910" data-name="Tracé 910" d="M67.081,16.317c-.293-.3-.8-.636-.651-.827.227.141.579.664.718.542-.509-.91-1.71-1.143-2.6-1.781a8.827,8.827,0,0,0,2.53,2.067" transform="translate(37.76 8.336)" fill="#fff" stroke="#f6e455" stroke-width="1" fill-rule="evenodd"/>
              <path id="Tracé_911" data-name="Tracé 911" d="M72.968,18.514c.273.385.566.192.528.01l-.295-.391c-.2.07.036.347-.233.382" transform="translate(42.684 10.607)" fill="#fff" stroke="#f6e455" stroke-width="1" fill-rule="evenodd"/>
              <path id="Tracé_912" data-name="Tracé 912" d="M75.1,23.576c-.7-.647-.48-1.068-1.14-1.712-.036.3.78,1.961,1.14,1.712" transform="translate(43.261 12.79)" fill="#fff" stroke="#f6e455" stroke-width="1" fill-rule="evenodd"/>
              <path id="Tracé_913" data-name="Tracé 913" d="M77.3,28.048a.306.306,0,0,1,.363.014,14.557,14.557,0,0,0-1.057-2.146c.057.265-.483-.092-.647-.566-.078.065-.223.081-.155.254.561.943,1.33,1.1,1.5,2.444" transform="translate(44.334 14.829)" fill="#fff" stroke="#f6e455" stroke-width="1" fill-rule="evenodd"/>
              <path id="Tracé_914" data-name="Tracé 914" d="M77.189,26.764l.29.75c.325.128-.146-1.086-.29-.75" transform="translate(45.153 15.621)" fill="#fff" stroke="#f6e455" stroke-width="1" fill-rule="evenodd"/>
              <path id="Tracé_915" data-name="Tracé 915" d="M77.148,28.417c.106-.074.3-.065.252-.279-.441.151-.008-.889-.5-.826.1.391.132.525.246,1.1" transform="translate(44.985 15.975)" fill="#fff" stroke="#f6e455" stroke-width="1" fill-rule="evenodd"/>
              <path id="Tracé_916" data-name="Tracé 916" d="M74.133,65.736c-.284.163-.151.395-.54.812.109.33.71.024.651-.357a1.3,1.3,0,0,1-.417.315c-.054-.152.436-.639.306-.77" transform="translate(43.049 38.453)" fill="#fff" stroke="#f6e455" stroke-width="1" fill-rule="evenodd"/>
              <path id="Tracé_917" data-name="Tracé 917" d="M58.5,80.052c.612-.385,1.236-.664,1.173-.9-.442.46-1.27.588-1.545.9.182-.081.357-.151.372,0" transform="translate(34 46.303)" fill="#fff" stroke="#f6e455" stroke-width="1" fill-rule="evenodd"/>
              <path id="Tracé_918" data-name="Tracé 918" d="M48.87,83.511c.363-.124.661-.262.724-.449-.417.113-1.01.184-.724.449" transform="translate(28.543 48.588)" fill="#fff" stroke="#f6e455" stroke-width="1" fill-rule="evenodd"/>
              <path id="Tracé_919" data-name="Tracé 919" d="M40.82,84.885c-1.208.163-1.813.106-2.786.168a5,5,0,0,0,2.629,0c-.295-.025.067-.09.157-.173" transform="translate(22.249 49.655)" fill="#fff" stroke="#f6e455" stroke-width="1" fill-rule="evenodd"/>
              <path id="Tracé_920" data-name="Tracé 920" d="M38.749,84.731a9.49,9.49,0,0,0,1.281-.52c-.75.087-1.135.049-1.281.52" transform="translate(22.667 49.26)" fill="#fff" stroke="#f6e455" stroke-width="1" fill-rule="evenodd"/>
              <path id="Tracé_921" data-name="Tracé 921" d="M38.223,84.71c.33-.193.669.3,1.138.038.024-.208-.089-.35-.33-.428a7.215,7.215,0,0,1-1.458.2c.139.3.017.2.158.506-.265-.035-.442.1-.163.162.206-.222.96-.146,1.143-.377-.192-.021-.461,0-.488-.1" transform="translate(21.893 49.324)" fill="#fff" stroke="#f6e455" stroke-width="1" fill-rule="evenodd"/>
              <path id="Tracé_922" data-name="Tracé 922" d="M36.264,85.108c.813.512.036.113.661.032.387-.051.935.19,1.157-.12a12.017,12.017,0,0,0-1.818.089" transform="translate(21.213 49.733)" fill="#fff" stroke="#f6e455" stroke-width="1" fill-rule="evenodd"/>
              <path id="Tracé_923" data-name="Tracé 923" d="M33.041,84.783c.552.049,1.964.209,1.823.081a5.671,5.671,0,0,0-1.823-.081" transform="translate(19.328 49.568)" fill="#fff" stroke="#f6e455" stroke-width="1" fill-rule="evenodd"/>
              <path id="Tracé_924" data-name="Tracé 924" d="M31.66,84.157c.406.052.526-.078.813.124.2-.307-.921-.477-.813-.124" transform="translate(18.516 49.113)" fill="#fff" stroke="#f6e455" stroke-width="1" fill-rule="evenodd"/>
              <path id="Tracé_925" data-name="Tracé 925" d="M30.679,83.125c.55.008.667.171.965.078-.106-.084-1.059-.393-.965-.078" transform="translate(17.943 48.544)" fill="#fff" stroke="#f6e455" stroke-width="1" fill-rule="evenodd"/>
              <path id="Tracé_926" data-name="Tracé 926" d="M29.5,77.164c.422.106.842.414,1.224.3l.054-.244a6.118,6.118,0,0,0-1.277-.06" transform="translate(17.257 45.133)" fill="#fff" stroke="#f6e455" stroke-width="1" fill-rule="evenodd"/>
              <path id="Tracé_927" data-name="Tracé 927" d="M25.452,78.075c.5.062.723.307,1,.271-.1-.057-.141-.125-.087-.208-.422-.154-.9-.374-.916-.063" transform="translate(14.889 45.579)" fill="#fff" stroke="#f6e455" stroke-width="1" fill-rule="evenodd"/>
              <path id="Tracé_928" data-name="Tracé 928" d="M23.471,78.972a.448.448,0,0,1,.22.282c.685.067.907.158,1.42.171a7.085,7.085,0,0,1-1.125-.5c.113.371-.5-.152-.515.049" transform="translate(13.73 46.167)" fill="#fff" stroke="#f6e455" stroke-width="1" fill-rule="evenodd"/>
              <path id="Tracé_929" data-name="Tracé 929" d="M22.049,72.489a4.069,4.069,0,0,1,.883.613c.276-.642.954.71,1.384.214-.306-.078-.992-.239-.766-.548.512-.043,1.148.775,1.3.344a4.395,4.395,0,0,1-1.84-1.024c.32.628-.469.122-.2.658-.26-.094-.732-.586-.767-.257" transform="translate(12.898 42.169)" fill="#fff" stroke="#f6e455" stroke-width="1" fill-rule="evenodd"/>
              <path id="Tracé_930" data-name="Tracé 930" d="M13.036,71.888c-.371.219.152.585.466.636-.393-.265-.074-.371-.466-.636" transform="translate(7.551 42.052)" fill="#fff" stroke="#f6e455" stroke-width="1" fill-rule="evenodd"/>
              <path id="Tracé_931" data-name="Tracé 931" d="M10.1,70.922c.423.132-.552-1.04-.845-1.152a2.406,2.406,0,0,0,0,1.1c.216-.041.382-.252.677-.008.035.195.989,1.363,1.138,1.086a5.882,5.882,0,0,0-.972-1.03" transform="translate(5.372 40.813)" fill="#fff" stroke="#f6e455" stroke-width="1" fill-rule="evenodd"/>
              <path id="Tracé_932" data-name="Tracé 932" d="M24.781,74.525l.03.006a.149.149,0,0,1-.024-.021Z" transform="translate(14.496 43.586)" fill="#fff" stroke="#f6e455" stroke-width="1" fill-rule="evenodd"/>
              <path id="Tracé_933" data-name="Tracé 933" d="M43.281,82.226l.01.07c.257-.063.514-.125.758-.184l-.767.114" transform="translate(25.318 48.033)" fill="#fff" stroke="#f6e455" stroke-width="1" fill-rule="evenodd"/>
              <path id="Tracé_934" data-name="Tracé 934" d="M128.764,64.223c-.106-1.791-.212-3.553-.315-5.248q-.043-.635-.086-1.257c-.057-.412-.113-.821-.168-1.224-.113-.807-.223-1.593-.33-2.352-.4-.607-.334-2.908-1.124-3.431a4.254,4.254,0,0,0-.447-2.076c.545.235-.212-.981.192-.907-.365-.682-.216-1.64-.6-1.875.185,1,.583,1.568.276,1.969-.152-.953-.637-1.872-.452-2.6-.282-.7-1.1-1.919-.989-2.6-.387.059-.233-.854-.612-1.165-.155,0-.113.306-.231.1-.387-.531-.333-1.4-.7-1.824.062.189.116.369-.036.369-.235-.439-.041-.5-.276-.941-.277.06.128.712.122,1.008a4.311,4.311,0,0,1,.937,2.24c-.327-.468-.575-.563-.533-1.182-.25-.021-.041.366-.193.43.189.5.445.415.628.965-.246-.017-.456-.319-.689-.418.181.548.458.285.647.783-.092.2-.426-.353-.312.119a.423.423,0,0,1,.149.181.777.777,0,0,0-.149.041c-.1.052-.2.106-.3.158a.19.19,0,0,1,.127-.143,1.53,1.53,0,0,1-.257-.929c-.19.081-.036.754.063,1.106-.217.116-.434.23-.658.331-.014.008-.057-.022-.1-.062a3.209,3.209,0,0,0-.143-.433.594.594,0,0,0-.192-.458,1.381,1.381,0,0,1-.135-1.212c-.523-.258-1.116-2.274-1.052-2.815-.2.038-.426-.22-.618-.54a2.542,2.542,0,0,1,.021-.346c.022-.162-.1-.212-.279-.176-.114-.29-.165-.536-.1-.571-.243-.225-.485-.466-.726-.72-.082-.2-.16-.393-.246-.59a.346.346,0,0,0,.054.016c-.3-.658-.621-1.263-.951-1.854l-.021-.032a27.522,27.522,0,0,0-2.507-3.861c-.325-.55-.656-1.13-1.011-1.774-.111.092-.244.03-.388-.1-.065-.631-.721-1.271-1.249-1.834a4.353,4.353,0,0,0-.605-1.246.459.459,0,0,1,.078-.094c-.189-.244-.271-.277-.327-.249-.079-.1-.163-.206-.249-.307-.355-.434-.742-.856-1.108-1.281a9.776,9.776,0,0,1-1.03-1.255c-.888-1.39-1.769-2.813-2.769-4.167a11.527,11.527,0,0,0-3.758-3.313c-.3-.247-.322.184-.6-.011a27.4,27.4,0,0,0-3.317-2.43c-1.26-.742-2.522-1.545-3.721-2.236C93.735,8.851,92.275,7.521,90.4,6.825a13.39,13.39,0,0,0-3.026-.718,6.982,6.982,0,0,0-2.62.269c-1.629-.686-3.94.067-5.411-1.06-.366.044-.4.423-1,.225-.434-.092-.385-.288-.586-.422-.1.456.151.406-.193.724a14,14,0,0,0,2.969.219c.281.124.357.295.815.4a28.721,28.721,0,0,1,8.82,1.358c3.091,1.084,5.655,3.309,7.92,3.953.415.338-.027.585.222.905,1.239.338,1.74,1.468,2.973,2.211.846.555,1.894.64,2.813,1.361a16.721,16.721,0,0,1,2.17,2.287,29.716,29.716,0,0,0,2.192,2.629,1.527,1.527,0,0,0,.03.166c-.45-.372-.772-.731-1.485-1.281.1-.173.372.26.493.16a16.773,16.773,0,0,0-1.376-1.222,4.226,4.226,0,0,1-1-1.257c-.214.334-.8-.338-1.075-.179.613.582,1.393,1.306,1.388,1.923-.6-.328-.5-.869-.856-.886A3.864,3.864,0,0,0,105.9,20.05a8.561,8.561,0,0,1,1.637,1.438.3.3,0,0,1-.282.063,4.358,4.358,0,0,0,1.371,1.232c.1.157.216.3.323.456a.732.732,0,0,0-.255-.106c.1.211.222.426.3.629a.365.365,0,0,0-.22-.071c.106.109.206.217.295.32a.581.581,0,0,1,0,.3,8.616,8.616,0,0,0-2.227-.808,2.477,2.477,0,0,1-.243-.456l-.179.174a1.46,1.46,0,0,1,.233.236l-.311-.073c-.046-.046-.094-.1-.143-.155.09-.09-.081-.49-.2-.216.139.136.168.239.114.317h0a3.5,3.5,0,0,1-.727-.433,7.083,7.083,0,0,1-.475-.812.744.744,0,0,0-1.149.049,3.307,3.307,0,0,1-.184.35q-.333-.176-.682-.406a2.05,2.05,0,0,0-.155-1.26c-.027-.063-.223-.067-.344-.073a.191.191,0,0,0-.144.1l-.025.067a1.143,1.143,0,0,1-.785-.761.348.348,0,0,0-.106.352,4.8,4.8,0,0,1,.829.624.093.093,0,0,0,.013.07,1.1,1.1,0,0,1,.273.483,14.368,14.368,0,0,0-1.992-1.65c-.147-.1-.292-.181-.436-.265.019-.019.038-.036.059-.055l-.119-.147a.951.951,0,0,0-.106.1,11.542,11.542,0,0,0-1.338-.65c-.157-.162-.3-.317-.425-.453a5.472,5.472,0,0,0-.509-.322,37.916,37.916,0,0,0-9.724-6.345,40.552,40.552,0,0,0-12.1-3.414,10.815,10.815,0,0,0-2.485-.862,13.429,13.429,0,0,0-2.893-.323c-1.132-1.014-3.349-1.154-5.511-1.041l-1.6.087c-.521.043-1.027.087-1.5.106a7.235,7.235,0,0,1-2.392-.209c-1.033,1.292-4.511.973-5.736.542-.152.46-.656.669-1.26.748a9.322,9.322,0,0,1-1.848.04c-.041-.178.807-.563-.073-.368-.422.046-.382.249-.579.371-.436-.2-.975-.284-1.238-.623-.8.1-.85.428-1.647.536a1.33,1.33,0,0,1,.688-.815c1.1-.447,1.349-.1,1.989-.078-.09-.3-.49-.3.109-.533.441.705,1.341-.461,2.016.114a1.271,1.271,0,0,0-.8.412c.805-.287,1.786-.558,2.5-.8-.227.038-.555.022-.233-.092A29.638,29.638,0,0,0,42.27,7.463a51.03,51.03,0,0,0-9.935,4.913,5.064,5.064,0,0,0-1.967.575c-1.72,1.455-3.034,2.354-2.742,3.777a44.209,44.209,0,0,1,7.429-4.82,2.341,2.341,0,0,1,2.2.593c-2.729,1.813-6.2,2.845-8.554,5-.331.311-.374.563-.707.823-2.032,1.623-3.221,2.23-4.649,3.3-2.772,2.089-5.105,5.005-7.359,7.608-.488.577-1.426.834-1.49,1.8.68-.669,1.374-1.376,1.961-2.083A14.017,14.017,0,0,0,17.944,27c.766-.624,1.8-1.463,2.782-2.4,1.044-.883,2.053-1.864,2.953-2.6.515-.285,1-.577,1.455-.876s.918-.571,1.35-.87l2.55-1.816a30.8,30.8,0,0,1,6.113-3.607c.563.455,1.083.038,1.929-.3.274.689,1.01.667,1.951.327.43-.4-.531-.317-.076-.653.621-.04,1.211-.043,1.5.418-.488.2-1.014.514-1.322.461.417.466,1.485-.1,1.767.572a28.371,28.371,0,0,0-2.415,1.512c-.747.563-1.476,1.113-2.186,1.671a34.22,34.22,0,0,1-4.424,3.16,8.23,8.23,0,0,0-1.755-.116c-.013.656,1.292.076,1.743.433a13.419,13.419,0,0,1-1.327,1.474c-.141.157-.279.312-.409.466-.033.01-.062.019-.1.027a2.048,2.048,0,0,0-1.588,1,3.39,3.39,0,0,1-.16.3,14.833,14.833,0,0,0-1.265,1.062c-.024.008-.041.021-.067.027a1.742,1.742,0,0,1-.127.152c-.073.071-.154.143-.225.214a2.7,2.7,0,0,1-1.759.391.4.4,0,0,0-.406.338.923.923,0,0,1-.179.338c-.2.214-.374.6-.743.195a.92.92,0,0,0-.639.632c-.214.526-.509.907-1.149.867a.482.482,0,0,0-.35.122c-.439.474-1.094.767-1.3,1.438-.133.436-.479.339-.772.393-.048.109-.086.26-.16.282a5.646,5.646,0,0,0-2.385,1.621,3.652,3.652,0,0,1-1.22.946c-.7.285-1.52.545-1.388,1.609.017.138-.211.32-.35.458q-.347.349-.726.666c-.125.1-.242.366-.452.117-.141-.165-.49-.265-.22-.6a.635.635,0,0,0,.141-.349,1.009,1.009,0,0,0-.12-.347c-.055.035-.113.068-.165.108a1.518,1.518,0,0,0-.667,1.285c.019.258.094.437-.111.636-.328.315-.617.675-1.143.669-.628-.008-.17.347-.219.558a1.813,1.813,0,0,1-.675,1.127,2.1,2.1,0,0,0-.788.707,6.183,6.183,0,0,1,.317-1.114c.8-2.225,2.755-4.612,3.552-6.819.975-.323.195-.655,1.27-1.461-.128-.288-.287-.824-.6-.67-.141-.04-.295.09-.449.219-.474,1.243-1.225,1.954-1.529,3.124A19.918,19.918,0,0,0,6.59,42.79a.809.809,0,0,1-.263.006.356.356,0,0,0,.17.285c-.019.065-.043.13-.062.2-.086.293-.166.591-.246.889a3.981,3.981,0,0,1-.517.29.94.94,0,0,0-.571.908c-.024,1.322-.049,1.323-1.244,2.019a1.871,1.871,0,0,1-.309.122.424.424,0,0,1-.388.4c.027.314.52.609,0,.956a2.351,2.351,0,0,0-.672.708c-.073.117-.143.227-.216.333a.369.369,0,0,0-.024-.127c-.022.079-.052.174-.082.268a1.372,1.372,0,0,1-.418.344c-.374.2-.024.558.133.826-.612.743.013,1.831-.71,2.541a6.866,6.866,0,0,1-.048,1.568A4.014,4.014,0,0,0,.789,57a.731.731,0,0,1-.612.857.362.362,0,0,0-.136.32c.276.42.1.818-.011,1.224a2.89,2.89,0,0,1,.357,2.07c-.025.694.19,1.445-.349,2.076-.1.12.008.391.212.472.247.1.5.158.487.506a7.655,7.655,0,0,0,.016.786C.824,66.4.6,67.52,1.148,68.555c.07.13-.036.371-.1.547-.057.16-.276.269-.074.483a1.338,1.338,0,0,1,.2,1.121,2.645,2.645,0,0,0,.133,1.534,4.265,4.265,0,0,0,.973,1.434,1.044,1.044,0,0,1,.42.623,3.739,3.739,0,0,0,.433,1.666,4.75,4.75,0,0,0,.813,2.725c.055.109.16.306.2.3.756-.2.875.59,1.333.835s.946.472,1.426.694c.089.219.176.442.262.666a.119.119,0,0,0,.065.166c.082.219.16.447.238.675a.743.743,0,0,0-.173,1.054,6.983,6.983,0,0,1,.582,1.8c.052.206.106.387.3.447.279.089.437.152.257.5-.143.276-.071.7-.258.91-.458.521.149.812.195,1.213.022.206.357.189.495.079.36-.282.663-.637,1.018-.926s.152-.475.04-.789a4.031,4.031,0,0,1,0-1.924c.006-.051.079-.094.122-.139.044.049.124.1.127.146.03.521.539.718.74,1.116.094.185-.388.493,0,.6a1.493,1.493,0,0,1,1.014,1.078c.222.6.442,1.2.7,1.777.288.643.624,1.266.934,1.9.084.171.228.363.206.525a1.582,1.582,0,0,0,.7,1.523,1.47,1.47,0,0,1,.488,1.4c-.01.322-.062.669.217.918A8.076,8.076,0,0,1,16.278,97c.171.255.2-.117.274-.243a2.147,2.147,0,0,1,.206-.263c.041.052.116.106.116.157a4.564,4.564,0,0,1-.212,2.282,1.625,1.625,0,0,0,.223,1.65c.556.913.631,1.049,1.507,1.347.734.247.864.38.884,1.064.017.591-.046,1.19.518,1.6.1.073.225.208.223.312-.01.913.675,1.373,1.228,1.913.417.407.747.932,1.374,1.07a8.93,8.93,0,0,0,1.186,1.522c.431.569,1.311.612,1.52,1.4.033.128.184.094.26-.078.049-.114.043-.257.1-.369a.99.99,0,0,1,.071-.116c.307.243.648.488.98.732-.233-.241-.51-.661-.794-1.022a.292.292,0,0,0,.03-.081c.055-.317-.176-.417-.455-.5a.721.721,0,0,1-.442-.357,1.808,1.808,0,0,0-.151-.292c.032,0,.063.008.108.016a.8.8,0,0,0-.185-.165c-.334-.518-.84-.9-1.178-1.415-.246-.374-.666-.75-.674-1.132a4.156,4.156,0,0,1,.52-1.419c.07-.176.13-.357.2-.529a.349.349,0,0,1,.127-.144c.22-.146.06-.07.109.147.111.487.374.612.821.6.425-.011.3.193.2.475-.168.441.311.227.463.363s.174.26-.013.271c-.629.041-.449.379-.3.72a1.034,1.034,0,0,0-.238,1.081.243.243,0,0,0,.109.155c.036.016.117-.038.158-.079.136-.139.341-.266.384-.433a1.251,1.251,0,0,1,1.4-1.038,1.107,1.107,0,0,0,.794.158.7.7,0,0,0-.059.531l-.09-.062c.04.049.086.09.128.136a.82.82,0,0,0,.2.257c.108.092.073.282,0,.46-.1-.071-.2-.144-.315-.217.151-.323-.51-1.018-.548-.615.67.082-.021.361.122.506a2.59,2.59,0,0,1,.623.6,11.251,11.251,0,0,0-.483,1.222,1.383,1.383,0,0,0,.439,1.737,1.6,1.6,0,0,1,.651,1.717c-.032.192.008.395-.019.588a1.167,1.167,0,0,0,0,.247,2.106,2.106,0,0,1-.32-.081,1.911,1.911,0,0,0,.35.282c.014.057.029.116.048.171a12.832,12.832,0,0,1-2.381-1.709L24.21,110.49a17.094,17.094,0,0,0-1.631-1.453c.192.179-.6-.23-.818-.617,0,.683,1.132,1.886,1.3,2.821a2.252,2.252,0,0,1,.815,1.152,1.394,1.394,0,0,0,.531.292c-.233.693,2.7,2.6,2.114,2.786a8.752,8.752,0,0,1,1.7.72c.157-.139-.143-.3.087-.433.361.239.667.379.859.323-.764-.507-1.084-.217-1.759-.59.26-.181-.036-.534-.355-.563-.352.113.388.341.231.474-.2-.132-.211.111-.458-.124.5-.195-1.041-.712-1.16-1.254a.359.359,0,0,1,.431-.1c.821.739.559.2,1.032.338.4.239.2.418.472.645.288-.287.965.133,1.441.51a9.4,9.4,0,0,0,2.046.368l.1.092a12.526,12.526,0,0,0,1.238.886c.1.071.238.008.249-.157.025-.384.189-.826-.086-1.135-.368-.415-.661-.991-1.382-.938a.655.655,0,0,1-.491-.243c-.139-.2-.268-.4-.4-.6a.416.416,0,0,1,.136-.044,1.578,1.578,0,0,1-.266-.151c-.2-.32-.4-.642-.609-.96.2-.533.371-1.076.6-1.593a.722.722,0,0,0,.078-.54.35.35,0,0,0-.108-.124c-.713.582-.835-.255-1.174-.51a.872.872,0,0,1-.247-.8c.428-.144.591.67,1.075.477a1.412,1.412,0,0,0,.133.124,5.437,5.437,0,0,0,1.246,1.219c.537.391,1.056.737,1.3.954-.04-.09.243-.208.342-.171.266.41,1.666.6,1.01.7a.862.862,0,0,0,.864.12,15.458,15.458,0,0,0-2.618-1.167c-.128-.468-.781-.764-1.277-1.084a3.576,3.576,0,0,1-.479-.355,1.508,1.508,0,0,0,.26-.086c.025-.008.049-.106.03-.141a2.911,2.911,0,0,1-.208-.328c-.062-.179-.12-.39.1-.507a.465.465,0,0,1,.539.013,4.3,4.3,0,0,0,.464.281,1.31,1.31,0,0,0,.09.563.78.78,0,0,0,.493.214,5.164,5.164,0,0,1,.785.086c-.124.048-.266.03.052.2a1.361,1.361,0,0,1,.391.06.374.374,0,0,0,.146.048c.74.258,1.612.918,2.171,1.013-.346-.222-.677-.437-1.008-.653.2.006.4.01.594,0,.048,0,.1-.07.132-.119.013-.024-.027-.1-.06-.117a.7.7,0,0,0-.832,0,.219.219,0,0,0-.06.1l-.545-.361c.174-.128.347-.279.558-.238a2.643,2.643,0,0,0,.7.006,2.6,2.6,0,0,0,.691.525c.071-.214.464.195.493-.1a.268.268,0,0,0-.03-.211,2.229,2.229,0,0,0,1.181.17c.422-.011.693.059.845.566a.9.9,0,0,0,.518.561c-.036.149.1.326.3.5-.422-.017-.582.385-1.1.216.217.116.374.238.406.377-.166.13-.531-.049-.655.151a3.567,3.567,0,0,1,1.491.886c.171-.409.862.082,1.057.216a.826.826,0,0,1-.9-.236c.074.452-.525-.12-.529.212.449.326,2.129.036,2.5.924-1.068-.539-1.423-.262-2.146-.391-.369.368-.25.659.049.926l.09-.217c.271.087.3.2.463.306-.1.033-.208.068-.062.155-.109.179-.17-.176-.466-.223.371.32,1,.607,1.35.953,1.14.3,2.648,1.342,3.595,1.373-.374-.236-1.308-.41-1.292-.9.4-.3.694.466.949.159-.529-.3-.831-.206-.945-.6.168.059.162-.1.306-.068.482.277,1,.713.846.916.036-.263.309.333.409.055-.17-.135-.108-.322-.133-.488-.634-.2-1-.461-1.016-.8.827-.07,1.379.349,2,.407a2.337,2.337,0,0,0,.45.636.45.45,0,0,0,.531.059c.158-.059.243-.307.482-.16a5.051,5.051,0,0,1,.981.585,5.862,5.862,0,0,0,2.089,1.325c.006,0,.008.011.013.014a.228.228,0,0,0-.055.1,5.226,5.226,0,0,1-2.029-.325.46.46,0,0,0,.139.147c-.469-.1-.949-.19-1.442-.274-.331.509.558-.014.525.415-.317.075-1.342-.151-1.365-.5a5.709,5.709,0,0,0,.708.281c-.071-.187-.38-.3-.658-.425l0-.008c-.013,0-.025-.006-.04-.008a.937.937,0,0,1-.4-.271c-.1.046-.756-.049-.458.106.014,0,.036.013.052.016-.983-.22-1.892-.552-2.777-.8a10.349,10.349,0,0,0-3.271-.666,1.265,1.265,0,0,0-1.1-.68,6.547,6.547,0,0,1-2.68-1.648c-.377.445-.927-.753-1.476-.766.011-.132-.074-.208.122-.219-1.173-.081-1.247-1.361-2.479-1.769.474.355-.675.12.255.639.26-.063-.141-.45.173-.285-.295.414.742.915.888,1.5.9-.01,1.347.783,2.29,1.342.022.19.016.753.444.675-.534-.211.23-.216.312-.312a7.842,7.842,0,0,1,1.344.889,2.281,2.281,0,0,0-.683.238c.12.052.225.089.342.136-.006.092.006.135-.16.246.548.376.686.155,1,.195-.406.423,1.393.886,1.743,1.357.043-.181.2-.19.487-.073-.094.092-.211.071-.089.231,2.588.9,4.972,1.583,7.343,2.3.875-.063,3.257.263,2.984,1.07a42.272,42.272,0,0,0,9.2,1.381,8.292,8.292,0,0,1,3.427-.1c-.146-.016.293-.208.566-.113,1.027.339-.7.672-1.555.631.747-.01.019.552-.13.748-1.629.16-2.954.084-4.392.239-.38-.052-.428-.271-.864-.295-.642.3-1.274-.315-2.029-.33-.431-.016-.783.3-1.212.25-.479-.057-.862-.466-1.268-.523-.243-.035-.688.046-.9.033.022,0,.127-.149.171-.143-.434-.065-.683.132-1.059.09-.067-.01-.067-.262-.1-.279-.491-.26-1.208.021-1.783-.084-.365-.336.561-.254-.059-.442-.1.269-.693.073-.949.2-.3-.55-1.625-.368-1.333-.764a16.677,16.677,0,0,1-1.866-.268,15.325,15.325,0,0,1-1.743-.5c.157.071.111.179.063.288a6.7,6.7,0,0,0-2.016-.54c.029-.081.147-.054.2-.108-.792-.271-1.547-.485-2.187-.766a16.13,16.13,0,0,1-1.652-.826,1.826,1.826,0,0,1-.539.114c-.25-.357-.376-.311-.71-.243-.208-.269.046-.518-.4-.558.36.431-.648,0-.949-.086.07-.151-.32-.273-.124-.43.046-.192.428.1.512-.03-.889-.4-1-.181-1.233.143.26.277.805.537,1.106.812.456-.3,1.786.643,2.04.965-.181-.082-.182.076-.339.024.017-.1.119-.2-.036-.292-1,.1-1.739-.572-2.785-1.144.17.447-.371.1-.536.387,1.081.525,2.186,1.019,3.156,1.509-.366-.35.5-.036.683-.049.214.235.9.818,1.143.8-.158-.087-.1-.19-.046-.295.428.634,1.366.785,2.14,1.2-.881-.369-.537-.029-1.232-.185.588.336.908.567,1.463.445l-.082.236a11.527,11.527,0,0,1,2.457.869c.447.19.905.393,1.369.548a8.6,8.6,0,0,0,1.407.287c0,.1-.082.223.089.281,1.625.09,3.791,1.214,4.641,1.025.006.331-.762.292-1.094.019-.006.593.943.368,1.341.357-.024,0,0,.166-.027.165.62,0,.948-.32,1.594-.263.826.073,1,.54,2.094.555-.277-.434,1.124.132,1.542-.043-.815-.132-.349-.168.311-.1.661.046,1.523.12,1.506.406-.506-.052-.588.155-.934.2.843.011.441.109.59.449.688-.057.761.181,1.228.227-.063-.269-.683-.269-.907-.46a1.173,1.173,0,0,0,.463-.062c.352.119.575.548.918.209a.33.33,0,0,0,.144.341c-1.247.043-2.1.078-2.937.048a15.836,15.836,0,0,1-2.772-.572,8.523,8.523,0,0,1-2.127-.306,8.586,8.586,0,0,0-2.2-.244c.013-.159-.491-.176-.407-.353-1.94-.235-3.748-1.525-5.421-1.415.409.171,1.037.249,1,.479-.472-.108-2.622-.6-1.978-1a5.162,5.162,0,0,1-1.2-.333c-.336.252.756.281.656.5-.675-.195-2.219-.579-2.56-1.184a27.979,27.979,0,0,1-3.482-1.485,13.041,13.041,0,0,1-2.6-1.628c-.276.342-.193-.3-.479-.425-.388-.1-.06.434-.322.293-.135-.078-.192-.033-.307-.082-.553-.236-.384-.458-.686-.689-.274.109-.9-.347-1.417-.643.211-.6-.948-.832-1.466-1.174a33.689,33.689,0,0,1-3.281-2.526c-1.07-.907-2.138-1.705-2.889-2.363,1.048,1.2,1.631,1.3,2.441,2.4a13.367,13.367,0,0,1,2.482,1.734,22.308,22.308,0,0,0,2.622,1.775c-.124.168.082.349.062.521-.219.014-.571-.19-.8-.184.434.471,2.114.87,2.758,1.821.2-.193.569.185.873.363.71-.282,2.8.751,3.566,1.233-.094.13-1.29-.593-.916-.244.422.2.865.4.753.628-.269-.073-.8-.483-.889-.323.406.327,1.4.617.948.994.579.336-.071-.384.558-.109.006.075.084.144.255.209.041.439-.412.255-.651.342.563.5.731.2.815.1.368.412-.5.12-.184.464a6.317,6.317,0,0,0,1.58.8.443.443,0,0,1-.244-.268c.25.146.707,0,.751.276-.181-.054-.422-.171-.479-.087.762.525,2.2.823,2.587,1.373.4.024-.2-.336.252-.265.9.19.7.552,1.271.792.116-.089-.059-.475.266-.349.518.238,1.52.276,1.32.636-.179.016-1.2-.239-.821-.043.918.074,1.484.411,1.95.16.6.257-.219.407.352.6.228.006.1-.306.388-.246.17.2,1.75.949,1.056.433a13.617,13.617,0,0,0,1.707.495c.049-.116,0-.315.216-.292a19.533,19.533,0,0,0,3.734.713c1.2.136,2.365.295,3.533.512.071-.139-.222-.227.016-.249a3.476,3.476,0,0,0,2.227.03c0,.114-.081.181-.168.243a5.231,5.231,0,0,1,2.07.252c-.444.315-1.262,0-1.452.526,1.121,0,1.609-.672,2.889-.477.214-.184-.415-.325-.008-.334a1.073,1.073,0,0,0,.951-.073c0,.284.477.29.811.379,1.249-.371,2.512.125,3.641-.455.637.011,1.347.014,2.083-.04.734-.087,1.495-.2,2.235-.331a26.756,26.756,0,0,0,3.848-.935c.189.189.886-.122.875.222.813-.518,1.438-.152,1.975-.68-.192.041-.374.071-.355-.079a6.54,6.54,0,0,1,1.057-.366c.052.122.06.284.38.157.341-.647,1.724-.472,2.492-.6-.008-.17-.262-.1-.388-.151.586-.2,1.637-.68,1.924-.312-.355.225-.648-.144-.781.195.219-.055.233.111.385.125a19.607,19.607,0,0,1,4.855-2.1c.387-.149.445-.494.615-.567.455-.2.973-.035,1.688-.537-.132.094.206-.092.575-.281.143-.073,1.553-.968,2.083-.853.165.152-1.062.664-.594.579a3.592,3.592,0,0,1,1.148-.579c-.162-.16-.019-.33.208-.456a1.442,1.442,0,0,1,.685-.239c-.365.384-1,.724-1.056,1.059.846-.539,2.208-1.875,2.5-1.157-.043-.075.185-.236.276-.17-.452.52-.133.536-.523,1a7.009,7.009,0,0,1,2.4-1.678,3.953,3.953,0,0,0,2.065-1.854c.124.1-.038.257.067.365.411-.293.216-.485.812-.812.065.147.257.038.331.168a3.634,3.634,0,0,0,.805-.816c-.552.463-.905.509-1.159.353.938-.548,1.117-1.16,2.159-1.433-.564.33-.228.49-.794.819.247.057.372.38.831-.006-.055-.113-.239-.2-.081-.357.139.347,1.946-.823,2.61-1.455-.079-.349-.46.094-.575-.155a2.491,2.491,0,0,0,.777-.591c-.114.379-.052.287.217.479.439-.3-.019-.352.315-.623.2.247.751-.453,1.008-.358.334-.688.645-.663.72-.439.3-.59.533-.7.664-1.189.315-.07.063.086.238.235a1.984,1.984,0,0,1,.894-.732c.119-.235.114-.445.214-.7.322-.1.491-.453.295.049,1.349-1.224,1.033-2.3,1.755-2.81-.4-.475.274-.872.838-1.2,0-.285-.52.116-.26-.211a2.366,2.366,0,0,0,1-1.056c.293.052.049.361.133.514.109-.372.545-.693.521-.829a.759.759,0,0,1-.493.238c.233-.3.174-.466.518-.826l.2.149c.453-1.365,1.918-2.667,1.953-3.366.241-.46.377-.154.586-.388a.323.323,0,0,0-.3,0c.106-.4,1.6-1.709.705-1.078.428-.632.826-.661.9-1.157-.216.311-.388.209-.216-.125-.014.258.163.239.382-.152a2.079,2.079,0,0,1,.2-.816c-.025.485.512-.564.566-.792-.079.1-.163.273-.238.238.135-.293.423-1.125.734-1.249.052.139-.3.542-.178.636.406-.4.263-.674.5-1.193.585.017.377-1.6,1.014-1.476a3.085,3.085,0,0,0-.577,1.558c-.106.472-.222.872-.71,1.051.4.247-.124.585-.365,1.277.325-.033.046.319.124.441.444-.615.157-.445.187-.642.157-.087.328-.5.469-.3-.087.171-.249.393-.176.463.285-.613.548-.862.8-.873a5.112,5.112,0,0,1,.58-1.143,15.4,15.4,0,0,0,.861-1.812c0-.339-.331.094-.16-.436,1.252-1.78,1.449-3.8,2.133-5.3-.124-.4-.555.119-.3-.626.247-.338.369-.176.528.013.195-1.512,1-2.266,1.431-3.826-.49-.831.723-2.826.41-3.92a3.428,3.428,0,0,1-.674,2c-.141-.663.22-2.506.713-2.159-.081-.918.721-1.533.288-1.918.6-.07.873-1.9.85-2.967,0,.157.128-.223.178-.632.124-1.065.3-2.247.428-3.419a18.68,18.68,0,0,0-.036-2.66.732.732,0,0,1,.3.046c-.074-1-.141-2-.211-2.98a.068.068,0,0,0,.084.01,6.763,6.763,0,0,1-.166-1.13c-.025-.333-.052-.663-.079-.994a6.687,6.687,0,0,0,.331-1.582c.017.32.238.19.2.634a3.324,3.324,0,0,0,.246,2.1c-.057.336-.141.344-.255.165.209,1.891-.059,3.3.3,5.028-.288-.433-.29,1.587.019,1.141a34.4,34.4,0,0,0-.613,3.878c-.07.694-.116,1.384-.132,2.032q-.012.487,0,.935c-.01.295-.011.574,0,.832.106-.8.582-2.219.352-2.942.306.425.163-.71.036-.824l.249.032a70.651,70.651,0,0,0,.68-10.8M105.247,18.755c.287-.136.468.293.574.52-.162.117-.534-.42-.574-.52M36.285,119.978c.03-.437.715.2.778.086.346.319-.425.138-.778-.086m4.766,2.8c.208-.43.463.141,1.032.274-.117.157-.72-.216-1.032-.274m1.193-1.258c.071-.217.718.043.865.214-.07.17-.6-.173-.865-.214m10.3,4.227a1.43,1.43,0,0,1,.613,0c-.029.117-.054.233.122.271-.139.174-.948-.052-.735-.273m4.817.927c-.1-.233.311-.152.319-.319-1.2-.29-2.452-.114-2.829-.794a4.087,4.087,0,0,0,2.265-.067c.195.092.282.239.588.277-.235.184-.374.111-.756.048.113.323.515.507,1.189.558.1.312-.255.357-.775.3m65.115-46.175c.184.017-.1.54-.108.769a.853.853,0,0,1-.12-.281c.059-.135.116-.268.17-.4.019-.006.038-.027.059-.086m-1.342,10.77a6.975,6.975,0,0,0-.54,1.159c-.243.189-.5-.082-.179-.6.254.634.258-.661.72-.561M80.8,122.154c-.044.206-.77.339-1.1.464.133-.45.515-.279,1.1-.464m-7.8,3.485a16.377,16.377,0,0,1-2.183-.065c.437-.439,1.327-.246,2.213-.533-.008.2-.173.347-.03.6m-4.617.057c-.114.284-.51.011-.61-.025-.07-.19.422-.122.418-.284.525-.054-.336.363.192.309m1.821-.109c-.07.208-.464.3-.536.506-.239-.216-1.295.189-1.4-.127.693.144,1.144-.439,1.938-.379m-1.124-1.19a13.872,13.872,0,0,1-1.715.384c-.346-.428.346-.579,1.211-.794.865-.2,1.923-.338,2.335-.453.648.12.829.434-.029.68.017-.07.133-.1.117-.187-.93.146-1.442.252-1.919.371m-1.449,1.368c-1.087.282-3.637.295-3.03-.143.778.309,1.772-.116,3.03.143m4.084-1.94c-.087-.208.263-.26.533-.342a.382.382,0,0,1-.533.342m1.106-2.526c-1.013.152-2.035.247-2.823.357-.339.138.173.346.477.26-.1.255-.6.073-.845.135-.041-.144.143-.2.087-.35-.09-.174-.7.075-.994.07a6.928,6.928,0,0,1,2.915-.875c.542-.059,1.117-.12,1.736-.185a18.863,18.863,0,0,0,1.962-.452c.021.116.04.233.2.2a7.807,7.807,0,0,1-1.251.5c-.23.075-.469.143-.715.208l-.753.125M39.39,111.392a.312.312,0,0,1,.182.025l0,0a.176.176,0,0,1-.017.059,1.387,1.387,0,0,1-.323-.084.867.867,0,0,0,.157,0m-7.9-3.352c-.043.04-.086.078-.128.116-.04-.019-.079-.04-.119-.06L31.3,108c.021-.03.043-.059.063-.089.041.041.081.082.12.124M56.659,16.17a.819.819,0,0,1-.534.187c-.038,0-.076,0-.114,0a1.205,1.205,0,0,0-.458,0,1.928,1.928,0,0,1,1.106-.195M125.211,49.1a.672.672,0,0,1-.074.666c-.117-.439-.151-.905-.288-1.342a.97.97,0,0,1,.036-.23c.274.932-.092.853.327.907m.2.777c.052.285.1.5.139.677-.021-.006-.035-.019-.055-.024a1.629,1.629,0,0,1-.152-.233c-.076-.249-.132-.477.068-.42m-.537,20.82a.567.567,0,0,0-.092-.428,4.512,4.512,0,0,1,.157-.964c.057.1.109.209.16.319a2.975,2.975,0,0,0-.054-.559c.011-.021.019-.052.032-.073-.013-.04-.021-.092-.033-.135a.23.23,0,0,1,.1-.163c.021.3.225.288.128.783-.563.605-.2.268-.4,1.22M73.2,17.015a.176.176,0,0,1-.181-.046l.193-.048c0,.036,0,.092-.013.094M113.282,32.9c-.252-.017-.475-.084-.491-.4l0-.016a4.247,4.247,0,0,1,.493.418m11.437,32.994c-.019-.249-.04-.5-.06-.753.006-.021.016-.041.022-.063a1.387,1.387,0,0,1,.388-.5c0,.262,0,.52.006.773a12.657,12.657,0,0,0,.143,1.645c-.132.014-.288-.024-.263.307.124.029.311-.051.328.16a3.623,3.623,0,0,1-.306,1.132,15.6,15.6,0,0,1-.258-2.7m.307-2.2c0,.043,0,.084.006.127a.194.194,0,0,1-.006-.127M116.863,36.78a.427.427,0,0,1,.087-.658.172.172,0,0,1,.065-.019,7.823,7.823,0,0,1,.773,1.151c-.347.065-.545-.065-.926-.474m-.276-1.149a.826.826,0,0,1-.574-.552,7.186,7.186,0,0,1,.574.552m8.186,34.782a1.9,1.9,0,0,1-.017.6c0-.2.006-.4.017-.6m1.859-14.461a2.67,2.67,0,0,1,.166-.365.775.775,0,0,1-.135.575c-.006-.065-.021-.141-.032-.211m-.192-1.544a1.044,1.044,0,0,1,.006-.162,1.087,1.087,0,0,1,.158.312,1.6,1.6,0,0,1-.165-.151m-.5-1.694c-.2.45.089.994.241.932-.024.2-.076.274-.146.284-.068-.089-.135-.178-.2-.268-.014-.059-.025-.116-.041-.174a2.683,2.683,0,0,0-.255-.263,1.992,1.992,0,0,1-.116-.212c-.065-.166.125-.388.336-.368a.8.8,0,0,1,.157.035c.009.011.014.022.024.035m-1.167-4.492-.016-.046a.271.271,0,0,1-.021-.173c.013.074.025.147.036.219M57.612,16.368a.591.591,0,0,1-.252-.071q.126.033.252.071M77.584,122.333c.12.357-.442.081-.834.311.144-.252.452-.274.834-.311M109.8,106.889c.162.274-.43.456-.775.991-.1-.113-.26.027-.355-.1a7.821,7.821,0,0,1,1.13-.888m.764-.994c.082.086.166.168.3.04.189.152-.433.792-.663.88-.111-.219.033-.533.365-.919M122.74,79.731a.816.816,0,0,1,.089.052c-.1.225-.136.247-.184.211.032-.087.065-.174.1-.263m1.812-6.245c-.01-.124-.022-.246-.041-.353a.615.615,0,0,1,.149-.113,1.84,1.84,0,0,1-.108.466m.3-1.011c-.032-.195-.057-.45-.075-.726a3.454,3.454,0,0,1,.239-.729,12.5,12.5,0,0,0-.079,1.438.207.207,0,0,1-.086.017m1.989-13.64a3.426,3.426,0,0,0,.035-1.244c.458.184.268,1.292.029,1.682-.019-.146-.043-.292-.063-.437m-.13-2.354a2.174,2.174,0,0,1,.307.929c-.293.179-.4-.669-.307-.929m-1.182-7.8-.322.09c-.12-.263.065-.713-.206-.777-.059-.539.206.127.282.086.041-.2-.067-.328-.2-.479a1.273,1.273,0,0,0,.155-.151,1.821,1.821,0,0,1,.295,1.23m-.636-2.674c-.108-.013-.162-.295-.23-.518h.027a.289.289,0,0,0,.193-.143c.214.442-.024.409.01.661m-1.352-1.549a.172.172,0,0,1,.147.017,1.145,1.145,0,0,1,.542.773.315.315,0,0,0,.328.239,2.371,2.371,0,0,1,.054.441c-.079.024-.06.157-.117.206-.2-.718-.6-.468-.12-.128.019.1.036.2.055.3-.265-.006-.529-.014-.792-.043-.075-.008-.2-.209-.182-.293.055-.233.279-.471.241-.67-.041-.222-.328-.395-.266-.688a.276.276,0,0,1,.111-.154m-2.8-5.205a.306.306,0,0,0-.295-.036,3.663,3.663,0,0,0-.189-.379c-.017-.1-.027-.2-.035-.306l.518.721m-10.7-14.667.187.219a.442.442,0,0,1-.038.071c-.346-.068-.507-.523-.715-.954.184.223.368.447.566.664m-5.7-1.823a.207.207,0,0,1,.068.1c-.067-.025-.136-.054-.2-.082a.1.1,0,0,1,.136-.016m-49.922-6.24c0,.067,0,.133.006.2a.325.325,0,0,0,.311-.206c.263,0,.534.01.81.016a1.257,1.257,0,0,1-.485.479c-.319.211-.539.084-.65-.252a2.417,2.417,0,0,0-.336.12c-.517.266-.7.26-.983-.1-.01-.013-.016-.029-.025-.041a4.57,4.57,0,0,1,1.352-.22m-3.837.6A7.128,7.128,0,0,1,51.846,17a.6.6,0,0,1-.434.138c-.124,0-.306,0-.366.082-.442.564-1.154.094-1.642.449A.447.447,0,0,1,48.7,17.6a13.491,13.491,0,0,1,1.873-.469m-32.7,79.131c-.054-.011-.108-.2-.1-.295a.338.338,0,0,1,.07-.144c.033-.046.071-.092.1-.139a1.044,1.044,0,0,1,.146.287c.024.155,0,.342-.223.292m1.805,4.945c-.021.086-.133.147-.2.222-.043-.048-.114-.09-.12-.139-.021-.176-.022-.353-.029-.529l-.027,0,0-.04a2.329,2.329,0,0,1-.26-.128c-.016-.009.006-.125.021-.127.214-.03.227.113.239.255l.029.014,0,.029c.288.006.43.149.353.447m1.187,1.083h0c-.1-.059-.2-.119-.3-.179.106-.054.216-.155.32-.152s.211.111.317.173c-.113.054-.225.106-.338.159m.794.846c-.011.146-.021.292-.243.255a.2.2,0,0,1-.021-.13,2.5,2.5,0,0,1,.263-.125l0-.041c.01,0,.016,0,.025,0a.758.758,0,0,1,.16-.661c.116-.109.5-.106.495,0a.518.518,0,0,1-.1.285c-.149.174-.279.393-.558.371l0,.029-.03.014m1.561.365c-.277.631-.854,1.113-.919,1.858,0,.036-.233.1-.334.07s-.249-.181-.233-.243a5.707,5.707,0,0,1,.973-2.037c.04-.054.241,0,.361.029l0,0c.035.029.062.059.1.089a.455.455,0,0,0,.035.043c.006.063.038.136.016.187M29.1,108.38a.233.233,0,0,1-.312.154.357.357,0,0,1,.311-.268c.336-.054.479.155.444.452a.892.892,0,0,0,.008.094,6.068,6.068,0,0,0-.45-.431m2.454.612a.337.337,0,0,1-.014.043l-.029-.029.043-.014.025-.086.082.049-.108.036m13.292,10.362a15.892,15.892,0,0,0-3.855-1.382,12.677,12.677,0,0,1-1.439-.84c-.054-.038-.111-.074-.165-.111.225.052.449.1.666.144.544.117,1.06.233,1.587.391a11.162,11.162,0,0,1,1.674.579c.994-.444,2.4,1.322,3.344,1.186-.374-.6,1.217-.113,2.135,0-.146.263-.043.61.019,1.094a15.1,15.1,0,0,1-3.966-1.057m18.4,3.088c.293-.184.474.192,1,.113-.011-.081-.181-.054-.29-.068.024-.12.422-.052.414-.19-.162-.181-.892.017-1.279-.013.58-.418,2.022-.384,2.5-.645a.316.316,0,0,1,.044.5c.154.273.317-.01.583.13.385-.132-.463-.141-.323-.4,1.083-.076,1.338.014,1.807-.288.461.068,0,.144.848-.038.151.558-.88.271-1.219.48.521.357,1.785-.563,1.864.01a13.427,13.427,0,0,0-1.388.244l-1.495.22a8.232,8.232,0,0,1-3.072-.055m.322,3.4c-.138.258.342.13.612.133a11.451,11.451,0,0,1-2.2.208c-.9-.025-1.894-.078-2.778-.021,1.054-.617,2.772-.03,4.363-.32m-4.823.552c.856.135,1.065.082,1.975.158-.854-.423,1.894-.2,2.125-.006a6.65,6.65,0,0,1-2.365.139,5.728,5.728,0,0,0-2.051.113c-.122-.273.249-.247.315-.4m-.477.731c.13-.287.539-.073.769.032-.044.193-.678.021-.769-.032m10.377.466-.035-.262-.206.049c-.336.057-.683.1-1.041.149-.715.092-1.469.168-2.244.22a19.086,19.086,0,0,1-4.7-.122c-.168.016-.1.163-.309.157a5.884,5.884,0,0,1-.929-.2c.04-.257.77-.109,1.238-.12.011-.117.022-.235-.155-.255a27.946,27.946,0,0,0,6.4-.626,3.006,3.006,0,0,1,1.268.33c.437-.1-.125-.26-.051-.414.379-.081.74.249.919-.022.453.006.19.1.2.307a7.388,7.388,0,0,1,1.8-.447c.109-.3-.493-.052-.786-.044a2.935,2.935,0,0,1,1.969-.314c.174.293-.61.656.263.548-.623.4-2.466.113-2.737.518,1.2.025,3.2-.6,3.909-.208-1.571.636-3.037.379-4.772.758m7.025-2c-.016-.149-.225-.124-.23-.284.572-.233.51.125,1.083-.109-.113.174-.609.254-.853.393m4.04-1.509c-1.818.285-3.385.759-5.238,1.127.059.144.514-.078.631.011.041.262-.87.387-.91.127-.387.239-.4.312-.174.623-.685-.174-.829-.39-.586-.583a5.472,5.472,0,0,1,1.739-.528c-.155-.087-.5,0-.773.025-.132-.238.658-.231.674-.43.2-.025.173.173.227.285,1.407-.45,1.5-.517,3.037-.972.29.25.742-.2,1.125.036.376-.182-.5-.054-.1-.317,1.048-.212,1.019.017,2.07-.5-.057-.23-.9.436-.8.025a3.914,3.914,0,0,0,1.672-.7.366.366,0,0,1,.008.442c.384-.116.425-.282.306-.469a1.394,1.394,0,0,1,1.258-.119c-.533.846-3.313,1.271-4.165,1.921m13.666-3.679c-.019-.436.6-.469.943-.869.127.262-.659.582-.943.869m4.341-.922c-.255.613-.231-.116-.64.206-.022-.119.3-.271.5-.41.055.1.111.209.279.119.027.094-.111.124-.136.086m-.5-1.263.534-.339.146.2c-.276.133-.594.341-.68.136m.618-.493c-.109-.182.326-.445.659-.7l.151.2a2.33,2.33,0,0,1-.81.494m-.223-.4c-.826.569-1.667,1.1-2.094,1.466.054-.341.758-.88,1.606-1.455s1.77-1.3,2.395-1.805a10.238,10.238,0,0,1-1.907,1.794m5.847-1.247c-.29-.182-.33-.179-.252-.544.3-.019.778.122.252.544m.474-.688c-.138,0-.349.163-.418.009.147-.049.293-.1.254-.2.144-.1.192.051.35-.092a.315.315,0,0,0,.044.3c-.154.106-.412.151-.23-.016m2.255-1.144c-.041-.117.254-.328.423-.5-.087-.052-.266.151-.417.271-.222-.008.165-.531-.231-.241.029-.2.669-.25.888-.252-.406.414-.135.437-.663.726m2.847-4.885.187.168-.539.591c-.225-.127.223-.5.352-.759m.883,1.011c.1-.38-.158-.089-.45.249-.117-.371.705-.7,1.044-1.029.125.138-.437.537-.594.78m.483-2.154a2.5,2.5,0,0,1-1.365,2.01c.1-.466,1.089-1.1.748-1.7.992-.9,1.6-1.8,2.14-2.165a2.764,2.764,0,0,1-1.523,1.851m2.84-3.263c-.548.617-.853.772-1.081,1.395l-.328-.258c.651-.6,1.149-1.653,1.9-2.36.009.474-.632.785-.493,1.224M119.787,94.7c-.281-.006-.1-.355-.38-.361.243-.154.46-.991.716-.721-.173-.331.428-.941.686-1.447-.5.943-.559,1.873-1.022,2.53m.108,2.782c-.122-.074-.25,0-.384.163-.149-.106.048-.436.263-.781.008.325.206-.029.214.3.189-.25.393-.907.558-.634a3.52,3.52,0,0,0-.651.954m.876-1.756c-.027-.506.214-.6.5-1.033.029.5-.212.605-.5,1.033m.577-5.917a1.288,1.288,0,0,1,.133-.8c.238.052.089.64-.133.8m-.136-2.24c-.011-.42.212-.566.346-1.206.238.09-.162,1.029-.346,1.206m.831-3.344c.231.214-.225.586-.2,1.081-.342.024.143-.726.2-1.081M122,86.842a4.981,4.981,0,0,1,.181-1.759c.051.255-.092,1.081.268.247.269.312-.3.959-.449,1.512m1.192-6.819a11.056,11.056,0,0,0-.206,2.847c-.068.355-.274.1-.361.388.439-.144.138,1-.073,1.774-.263-.136-.407-.135-.426-.295a1.458,1.458,0,0,0,.227-.91c-.3.376-.141-.521-.331-.577.135-.3.211-.282.284-.082.108-1.162.672-2.495.758-3.652.089.043.117.309.243.052-.346.173.076-.523-.133-.506-.114.17-.176.114-.212-.021.116-.353.233-.705.331-1.071.306-.1-.147.664.071.659.124-.678.72-1.712.426-1.97-.182.67-.165.957-.483,1.268,0-.021.013-.038.017-.059.135-.591.247-1.2.331-1.831a.531.531,0,0,0,.341-.147l-.006.016a1.521,1.521,0,0,1,.089,1.214,3.744,3.744,0,0,0-.235,1.285.706.706,0,0,1-.434.39,4.419,4.419,0,0,1-.159,2.038c-.274.014.113-.708-.057-.812m-.013,7.728c.262-.523.084-.792.38-1.062.406-.07-.106,1.358-.38,1.062m.409-1.393c.346-.231.629-.88,1.011-.872-.3.571-.6,1.13-1.011.872m3.363-26.68,0-.01V59.7l0-.022m.374-.693c.071-.244.078.675.168,1.274-.368-.162-.285-.889-.168-1.274" transform="translate(0 2.995)" fill="#fff" stroke="#f6e455" stroke-width="1" fill-rule="evenodd"/>
              <path id="Tracé_935" data-name="Tracé 935" d="M23.491,7.558c-.235.368-1.762.842-1.851,1.006.336-.049,2.347-.934,1.851-1.006" transform="translate(12.659 4.421)" fill="#fff" stroke="#f6e455" stroke-width="1" fill-rule="evenodd"/>
              <path id="Tracé_936" data-name="Tracé 936" d="M44.27.542c-.1-.193-.919-.086-.975-.262C44.34.055,45.01.77,46.064.868c.036-.1,0-.241.19-.227a2.267,2.267,0,0,0,.455.4c1.119-.049,3.2.613,4.135.322-.239-.187-1.2-.268-.594-.458-.812-.165-.135.23-.548.249-.024-.07-.122-.117-.315-.133.3-.334-1.071-.23-1.61-.5-.418.051.266.292-.206.306C47.235.5,46.557.35,46.584.688c.1-.113-1.317-.143-.8-.363A18.889,18.889,0,0,0,42.815,0c.128.3.008.206.136.509.659-.135.886.133,1.319.03" transform="translate(25.045 0)" fill="#fff" stroke="#f6e455" stroke-width="1" fill-rule="evenodd"/>
              <path id="Tracé_937" data-name="Tracé 937" d="M55.612,8.362a7.755,7.755,0,0,0,1.276.422c-.322-.2-1.067-.536-1.276-.422" transform="translate(32.531 4.878)" fill="#fff" stroke="#f6e455" stroke-width="1" fill-rule="evenodd"/>
              <path id="Tracé_938" data-name="Tracé 938" d="M59.868,8.645c-.155.258-.781-.262-1.09-.255.166.314,1.366.643,1.09.255" transform="translate(34.383 4.908)" fill="#fff" stroke="#f6e455" stroke-width="1" fill-rule="evenodd"/>
              <path id="Tracé_939" data-name="Tracé 939" d="M62.5,7.335c.074-.117.415.2.512.117-.247-.109-.314-.556.032-.371.179.263.39.086.821.182-.8-.263-1.97-1.046-2.327-.9.61.114,1.339.81.962.973" transform="translate(35.995 3.711)" fill="#fff" stroke="#f6e455" stroke-width="1" fill-rule="evenodd"/>
              <path id="Tracé_940" data-name="Tracé 940" d="M62.386,12.188c-.208.17.1.4.449.645-.082-.4.748.411.388-.024-.3-.214-.468-.151-.43-.423.067.049.178.048.051-.067a.7.7,0,0,1-.388.024c.024-.046.041-.092-.07-.155" transform="translate(36.454 7.13)" fill="#fff" stroke="#f6e455" stroke-width="1" fill-rule="evenodd"/>
              <path id="Tracé_941" data-name="Tracé 941" d="M63.051,12.849c.686.807,1.51,2.129,2.377,2.247-.074-.092-.217-.2-.168-.262.352.279.564.155,1,.666.179-.135-.09-.369-.281-.586-.555-.25-2.541-1.568-2.365-2.06-.185,0-.422-.113-.559,0" transform="translate(36.883 7.489)" fill="#fff" stroke="#f6e455" stroke-width="1" fill-rule="evenodd"/>
              <path id="Tracé_942" data-name="Tracé 942" d="M66.69,11.086c.217.525,1.9,1.434,1.894,2.035.284.257.452.216.777.594-.146.035-.319-.008-.464.027a7.346,7.346,0,0,1,.78.593c.249.235.5.491.745.762.5.54,1,1.138,1.5,1.734a27.253,27.253,0,0,0,3.045,3.194c.1,1.021,1.482,1.3,1.349,2.041.133-.247.057-.19.328-.255a4.017,4.017,0,0,1-1.51-2.466c-.029-.021-.025-.055.043-.136a.289.289,0,0,0-.043.136c.1.065.6-.078.61.458.284.059-.019-.537.255-.212a5.285,5.285,0,0,1,.179.918,6.7,6.7,0,0,0,.729.682c-.062.081-.2.124-.1.285.292-.414.6.6.756.869.06-.415-.536-1.151-.431-1.544-.309.054-.217-.22-.566-.607.06-.082.2-.125.094-.288-.147-.046-.317-.715-.773-.867.176.3.116.361-.09.292-.391-.734-1.174-1.32-1.5-2.2-.4.252-.639-.347-1.013-.865-.109.065-.184.255-.355.108-.211-.263-.062-.395-.092-.593.178.222.775.612.515.192-.187.147-.718-.888-.905-.737.257.255.307.434.157.539-.12-.444-.363-.135-.732-.666-.2.108-.382.26-.636.174.029-.593-.735-.545-1.122-.948a1.951,1.951,0,0,1-.192-1.23c-.418-.307-.49-.461-.663-.493.235.246.094.385.139.579a7.508,7.508,0,0,1-1.82-1.644.95.95,0,0,1-.892-.46m6.492,6.177a1.9,1.9,0,0,1,.61.548c-.09.425-.6-.685-.685-.258-.119-.151.019-.2.075-.29" transform="translate(39.011 6.485)" fill="#fff" stroke="#f6e455" stroke-width="1" fill-rule="evenodd"/>
              <path id="Tracé_943" data-name="Tracé 943" d="M66.285,15.548a.99.99,0,0,1,.119.732c.233.338.32.1.521.312-.1.1-.071.236.027.395.29-.495-.475-.861-.347-1.342-.078.076-.231-.136-.32-.1" transform="translate(38.774 9.092)" fill="#fff" stroke="#f6e455" stroke-width="1" fill-rule="evenodd"/>
              <path id="Tracé_944" data-name="Tracé 944" d="M77.386,26.646c-.06-.843.545.247.605-.279-.277.089-.531-.483-.8-.523.372.5-.073.377.2.8" transform="translate(45.153 15.118)" fill="#fff" stroke="#f6e455" stroke-width="1" fill-rule="evenodd"/>
              <path id="Tracé_945" data-name="Tracé 945" d="M77.59,28.2c-.122,0-.227-.154-.366-.024.185.428.049.574.049.838.1-.068.439.7.346.206-.463-.536.059-.659-.029-1.021" transform="translate(45.173 16.45)" fill="#fff" stroke="#f6e455" stroke-width="1" fill-rule="evenodd"/>
              <path id="Tracé_946" data-name="Tracé 946" d="M74.582,64.729c.29-.2.726-.149.613-.214.117-.434-.434-.165-.613.214" transform="translate(43.628 37.609)" fill="#fff" stroke="#f6e455" stroke-width="1" fill-rule="evenodd"/>
              <path id="Tracé_947" data-name="Tracé 947" d="M71.554,69.422c-.407.5-.916.727-.9,1.152.285-.178.861-.7.754-.227.094-.409,1.27-1.176.949-1.125-.309.252-1.144.883-.805.2" transform="translate(41.33 40.491)" fill="#fff" stroke="#f6e455" stroke-width="1" fill-rule="evenodd"/>
              <path id="Tracé_948" data-name="Tracé 948" d="M74.856,73.735c-.022.193-.021.179-.1.869.477-.658.908-1.3.637-1.61-.139.23-.7.653-.539.742" transform="translate(43.731 42.698)" fill="#fff" stroke="#f6e455" stroke-width="1" fill-rule="evenodd"/>
              <path id="Tracé_949" data-name="Tracé 949" d="M62.154,78.462c-.223.178-.43.122-.42.263.572-.168-.474.431-.426.56.372-.116,1.27-.726,1.081-.773-.583.38-.363.176-.235-.049" transform="translate(35.862 45.897)" fill="#fff" stroke="#f6e455" stroke-width="1" fill-rule="evenodd"/>
              <path id="Tracé_950" data-name="Tracé 950" d="M50.272,83.455c.235.022.615-.084.712.067-.753.239-2,.073-1.6.428.223-.258,1-.162,1.19-.059.133-.228,1.6-.892,1.152-.747-.689.355-1.23.046-1.457.311" transform="translate(28.843 48.625)" fill="#fff" stroke="#f6e455" stroke-width="1" fill-rule="evenodd"/>
              <path id="Tracé_951" data-name="Tracé 951" d="M47.583,83.534c.011.393-.6.84.068,1.006-.086-.149.182-.2.265-.317-.517-.089-.452-.58.5-.726.1-.312-.523,0-.829.036" transform="translate(27.691 48.763)" fill="#fff" stroke="#f6e455" stroke-width="1" fill-rule="evenodd"/>
              <path id="Tracé_952" data-name="Tracé 952" d="M46.564,83.989c-.328.13.369.277.273.547l-.651.1-.076-.409c-.491.341-1.458.4-1.051.672a.856.856,0,0,0-.8.206c1.26-.074,1.575-.434,2.615-.411,0-.1.011-.2.293-.217-.495-.147-.032-.517-.6-.493" transform="translate(25.888 49.13)" fill="#fff" stroke="#f6e455" stroke-width="1" fill-rule="evenodd"/>
              <path id="Tracé_953" data-name="Tracé 953" d="M41.31,87c.326.108,1.152-.073.9.363,1.243-.116-.5-.666-.9-.363" transform="translate(24.165 50.837)" fill="#fff" stroke="#f6e455" stroke-width="1" fill-rule="evenodd"/>
              <path id="Tracé_954" data-name="Tracé 954" d="M37.01,84.161a1.578,1.578,0,0,1,.483.187c1.8-.073-.125-.2-.483-.187" transform="translate(21.65 49.231)" fill="#fff" stroke="#f6e455" stroke-width="1" fill-rule="evenodd"/>
              <path id="Tracé_955" data-name="Tracé 955" d="M36.839,84.489c.138.252.878.35,1.3.306-.12-.185-.705-.333-.317-.514a6.956,6.956,0,0,0-1.951.076c.474.309-.48.285-.182.407a1.456,1.456,0,0,1,.98.049c.216-.2-.073-.265.174-.325" transform="translate(20.84 49.278)" fill="#fff" stroke="#f6e455" stroke-width="1" fill-rule="evenodd"/>
              <path id="Tracé_956" data-name="Tracé 956" d="M40.745,85c.013.209-.268.252-.509.287-.029-.178-.705-.116-.788-.271-.182.054-.079.3-.507.182a55.534,55.534,0,0,1-6.817-1.263c-.975-.257-1.927-.509-2.935-.777-.506-.136-1.022-.277-1.563-.425-.529-.184-1.084-.376-1.669-.58-.1.552-.5-.254-.819-.111.171.525.536.561,1.246.965.212-.211-.353-.3-.369-.48a1.286,1.286,0,0,0,.488.079c-.317.271.723.506.17.586,1.148.319,2.447.479,3.85.785.7.143,1.441.3,2.213.483l1.189.284c.407.081.829.162,1.26.247.011-.144.155-.193.358-.2.361.265.418.143,1.122.252-.219.214-.139.293.268.46.04-.092,0-.238.193-.225a17.37,17.37,0,0,0,2.923.132,6.8,6.8,0,0,0,2.021-.361c-.3.068-.953-.073-1.323-.051" transform="translate(14.705 47.982)" fill="#fff" stroke="#f6e455" stroke-width="1" fill-rule="evenodd"/>
              <path id="Tracé_957" data-name="Tracé 957" d="M22,75.3c.564.212,1.184.636.54.536.306.233.705.5.951.357.406.384.452,1.006,1.078,1.149a.324.324,0,0,1-.262.247c.458.144.7,0,1.086.043.241.147-.016.349.437.475.206-.149.949.033,1.647.306a.235.235,0,0,0-.084.128.906.906,0,0,0,.1.331c.063-.07.176-.135.181-.208a.446.446,0,0,0-.036-.187c.775.32,1.438.731,1.159.891a9.016,9.016,0,0,1,1.2.422h-.008c-.052.006-.1.076-.147.12-.084.081-.054.2.116.241.358.09.775-.021,1.059.322.334-.241.62-.132.96.046.195.1.346,0,.422-.209.027-.008.054-.006.079-.016l-.057-.033a1.053,1.053,0,0,0,.027-.223c.246.046.517.116.558-.038l-.559-.119c-.027-.176-.1-.425-.208-.355a1.567,1.567,0,0,1-.434.2c-.133-.035-.266-.063-.4-.1-.542-.182-1.1-.379-1.64-.579l-2.939-1.094a.723.723,0,0,1,.36-.136c.407.127.556.553.815.3a3.694,3.694,0,0,1-.892-.5c-.22.19-.607.1-1-.051a2.665,2.665,0,0,0-1.019-.341.225.225,0,0,0,.158-.385,3.671,3.671,0,0,1-1.59-1.019c.079-.094.271-.027.36-.106A6.3,6.3,0,0,0,22,75.3" transform="translate(12.869 44.05)" fill="#fff" stroke="#f6e455" stroke-width="1" fill-rule="evenodd"/>
              <path id="Tracé_958" data-name="Tracé 958" d="M24.324,79.529a4.1,4.1,0,0,1,2.213.708.314.314,0,0,0-.067-.288c.247.092.393.071.485,0-.915-.206-1.338-.437-2.227-.621.949.328-.176.211-.4.206" transform="translate(14.229 46.401)" fill="#fff" stroke="#f6e455" stroke-width="1" fill-rule="evenodd"/>
              <path id="Tracé_959" data-name="Tracé 959" d="M23.637,78.939a1.483,1.483,0,0,1-.528-.333c-.247.155.474.819.295.5-.39-.23.262-.022.233-.168" transform="translate(13.488 45.982)" fill="#fff" stroke="#f6e455" stroke-width="1" fill-rule="evenodd"/>
              <path id="Tracé_960" data-name="Tracé 960" d="M21.384,79.134c-.38.466,1.3.834,1.354,1.277l.063-.154c.09.035.178.068.176-.011-.33-.2-.819-.395-1.409-.75.04-.125.138-.254-.184-.363" transform="translate(12.476 46.291)" fill="#fff" stroke="#f6e455" stroke-width="1" fill-rule="evenodd"/>
              <path id="Tracé_961" data-name="Tracé 961" d="M19.231,81.755c.154.017.653-.114.338-.3-.4.119-.594-.181-.91-.094.255.149.36.262.38.39-.542-.136-.512-.262-1.051-.585-.108.12.082.26,0,.384-.461-.407-.932-.347-1.312-.477.447.238.371.436.821.674.567-.06.935.3,1.983.683.025-.171.282-.048.42-.074a1.962,1.962,0,0,1-.664-.6" transform="translate(9.752 47.426)" fill="#fff" stroke="#f6e455" stroke-width="1" fill-rule="evenodd"/>
              <path id="Tracé_962" data-name="Tracé 962" d="M20.863,71.807c.339.076.464.493.575.342-.5-.334-.216-.414-.249-.634-.268.07-.322-.009-.326.292" transform="translate(12.204 41.834)" fill="#fff" stroke="#f6e455" stroke-width="1" fill-rule="evenodd"/>
              <path id="Tracé_963" data-name="Tracé 963" d="M64.389,8.546c.572.466.837.336,1.26.515a3.788,3.788,0,0,1,.553.932,3.938,3.938,0,0,1,1.062.737,8.662,8.662,0,0,0,1.287,1.084,1.883,1.883,0,0,1-.739-1.2c-.582-.231-.8-.605-1.33-.721.1-.119,0-.219-.216-.266.143-.151.265-.306-.021-.534-.43-.03-1.062-.455-1.495-.488a2.12,2.12,0,0,0-.212-.567c-.059.1-.166.1-.276.109.246.165.266.295.125.4" transform="translate(37.592 4.701)" fill="#fff" stroke="#f6e455" stroke-width="1" fill-rule="evenodd"/>
              <path id="Tracé_964" data-name="Tracé 964" d="M29.7,84.166a8.785,8.785,0,0,0-1.114-.674,6.629,6.629,0,0,0-2.666-.766c-.057.689-.731.74-1.623.559.193-.372-.8-.615-.9-.959-.076.36-.628-.032-.609.181a.873.873,0,0,0-.366-.441c-.109.4-1.046-.193-1.653-.4-.111.292.079.3-.2.46a20.311,20.311,0,0,0,2.636,1.642c1.594.117,3.3,1.98,5.33,2.441,1.352.3,2.244-.3,1.97-1.414a5.836,5.836,0,0,0-.812-.631" transform="translate(12.033 47.773)" fill="#fff" stroke="#f6e455" stroke-width="1" fill-rule="evenodd"/>
            </g>
          </g>
        </g>
      </g>
    </g>
  </g>
</svg>
