<svg xmlns="http://www.w3.org/2000/svg" width="83.25" height="62.034" viewBox="0 0 83.25 62.034">
  <g id="guillemets" transform="translate(-11.83 -20.487)">
    <path id="Tracé_1" data-name="Tracé 1" d="M78.26,60.77c.05.19-.14.48.19.55.17.03.22-.16.26-.29.08-.27.03-.48-.29-.54l-.18-.03a1.62,1.62,0,0,1,.01-.22c.04-.05.09-.09.13-.14.21-.49.43-.98.64-1.47.17.01.22.15.3.27s-.03.39.19.4c.25.01.23-.25.28-.41a12.055,12.055,0,0,0,.4-1.2c.15-.5,0-.85-.55-.94.04-.13.08-.25.11-.38.13-.09.11-.24.11-.37h0c.19-.19.37-.35.38.11,0,.15-.04.37.22.36.24-.02.26-.22.28-.41a.634.634,0,0,0-.63-.8c.08-.41.17-.83.25-1.24.51.03.45.49.57.83a2.9,2.9,0,0,0-.3-3.2V51.4a2.067,2.067,0,0,0,.25-.15c.67-.51.66-.69-.03-1.1-.04-.04-.08-.09-.12-.13,0-.14.11-.21.21-.28.3-.21.42-.52.19-.8s-.56-.17-.81.08c-.19.19-.39.36-.59.54h-.1a3.084,3.084,0,0,0-1.3-.26c-1.4.02-2.8-.1-4.21-.1-2.05,0-4.1.03-6.15-.04a13.647,13.647,0,0,0-2.39.25c-.28.04-.41.16-.41.44a3.013,3.013,0,0,1-1.12,0V48.8c0-.27-.01-.55-.35-.64v-.37a.9.9,0,0,0,0-1.24v-5.6a.575.575,0,0,0,.04-.9,18.956,18.956,0,0,1-.05-2.61q0-7.77.02-15.53c.37-.21.37-.41,0-.62.02-.33-.24-.85.48-.73,0,.92.1.99,1.06.86.46-.06.89.14,1.35.12,8.14-.29,16.29-.06,24.44-.13a29.622,29.622,0,0,0,2.98.02c.35-.04.83.66.76,1.14a46.346,46.346,0,0,0-.19,6.56c-.02,3.65-.04,7.29.02,10.93a12.059,12.059,0,0,0,.08,3c.07.24.12.38.38.36,0,.79-.01,1.58-.02,2.36-.36-.04-.59.07-.63.49a12.528,12.528,0,0,0-.26,3.24c.1.65-.21,1.34,0,2.02-.93,1.08-.18,2.63-1.03,3.73.13.8-.37,1.46-.5,2.18-.19,1.05-.66,1.99-.91,3.01-.24.97-.93,1.79-.92,2.84,0,.32-.52.42-.44.84.24,0,.36-.26.58-.18a5.018,5.018,0,0,1-.6,1.12c-.4.1-.97-.05-.84.72.03.19-.32.4-.56.5s-.37.26-.33.46c.12.58-.23.85-.64,1.11-.38.25-.36.66.03.95-.06.08-.11.16-.17.24H87.4c-.65.02-.74.15-.61.79a5.109,5.109,0,0,1,.05.55c-.25.03-.29.38-.57.37-.12-.11.08-.52-.31-.36-.22.09-.29.29-.09.5.11.12.09.27.11.41h0c-.61.07-.67.13-.46.52a2.119,2.119,0,0,1-.89.84c-.6.07-1,.35-1.02,1.01a16.215,16.215,0,0,1-1.63,1.35c-.54-.16-.04-.45-.07-.67-.66.05-.73.15-.49.7a1.435,1.435,0,0,1,.07.36c-.07.05-.14.09-.21.14-.42-.25-.43.03-.42.33a5,5,0,0,1-1.21.78.8.8,0,0,0-1.15.73.265.265,0,0,1-.23.13,1.709,1.709,0,0,0-.14.11l-.87.51c-.16.06-.49-.33-.48.18a1.387,1.387,0,0,1-.63.34c-.25-.23-.36-.14-.36.17a1.282,1.282,0,0,1-.63.33c-.24-.24-.35-.15-.37.15a.9.9,0,0,1-.49.21c-.3,0-.34-.42-.67-.38-.28.03-.79-.14-.39.47a.729.729,0,0,1,.04.3c-.21.09-.41.17-.62.26-.02-.24-.18-.41-.39-.34-.23.08-.08.35-.12.54a.716.716,0,0,1-.46.16,2.2,2.2,0,0,1-.25-.17c-.17-.17-.36-.29-.6-.17-.31.17-.04.39-.04.59v-.01c-.05.03-.09.07-.14.1a3.094,3.094,0,0,1-.98.3.441.441,0,0,0-.55-.28c-.3.05-.19.31-.22.49a1.944,1.944,0,0,1-.75.24c-.3-.64-.41-.67-1.58-.42.17.26.7.19.58.65-.29.09-.59.18-.88.27-.04.03-.07.07-.11.1-.08-.01-.17-.03-.25-.04.03-.37-.17-.62-.5-.52-.6.18-.5-.21-.5-.52V72.46a1.907,1.907,0,0,0-.28-1.24c-.21-.27.09-.51.03-.77.12-.02.24-.04.35-.06.14.29.23.64.69.51.52-.14.46-.55.45-.94l.61-.18c.03.23-.06.53.26.63a.518.518,0,0,0,.67-.29c.13-.25.41-.31.65-.43.8-.43,1.68-.65,2.48-1.09a1,1,0,0,0,.56-1.15l.24-.15c.24.5.46.54.76.13a1.3,1.3,0,0,0,.37-.95c.19-.36.8-.15.89-.65.46.53.83.27,1.18-.14.4-.47.94-.77,1.34-1.25.39-.46.48-.81.07-1.25.66-.91,1.32-1.82,1.98-2.72a1.514,1.514,0,0,0,.02.3Zm.63-.82c0,.13-.06.33.14.34.17.01.21-.16.22-.31s0-.28-.13-.34C78.88,59.65,78.88,59.81,78.89,59.95Zm-5.44,6.98c.16,0,.2-.11.19-.24s-.07-.23-.22-.21a.224.224,0,0,0-.22.23.239.239,0,0,0,.25.21Zm4.57-5.02s.09-.07.09-.12c0-.08-.04-.16-.14-.13-.04.01-.05.09-.09.16.05.04.1.09.13.09Zm-9.3,18.84s-.07-.09-.12-.09c-.08,0-.16.04-.13.14.01.04.09.05.16.09.04-.05.09-.1.09-.13Z"/>
    <path id="Tracé_2" data-name="Tracé 2" d="M17.37,80.44a.9.9,0,0,1-.54,0,.325.325,0,0,0-.45.19c-.08.23.13.28.3.38.21.13.57-.03.66.33a2.171,2.171,0,0,1-.99.28c-.12-.55-.39-.86-1.01-.65-.13.04-.29,0-.43.03-.18.03-.5-.12-.51.18,0,.28.3.3.52.31.26.01.51,0,.55.35a4.042,4.042,0,0,1-1.36.29c.02-.3-.01-.62-.33-.73a.871.871,0,0,1-.53-.95c.01-2.81-.09-5.62.04-8.43a4.675,4.675,0,0,0-.14-.9c-.03-.15-.06-.33.18-.26.29.08.56.32.85.03s.13-.63.17-.94l.61-.18c.06.22-.13.54.21.64a.881.881,0,0,0,.73-.21,11.862,11.862,0,0,1,1.94-1c.52-.2,1.01-.45,1.51-.69.55-.26-.01-.63-.02-.95a.674.674,0,0,1,.38-.24c.59.6.63.6,1.14-.07a.65.65,0,0,1,.56-.32c.18,0,.4.02.39-.26,0-.24-.19-.23-.36-.23-.21,0-.17-.12-.12-.25.19-.15.39-.3.58-.45.33.71.47.61,1.08.1.78-.65,1.27-1.54,2.08-2.14.27-.2.28-.48.37-.75.18-.01.39.02.44-.23a.2.2,0,0,0-.1-.12c-.25-.02-.32.14-.34.35-.28-.03-.53.19-.82.09a32.252,32.252,0,0,0,2.29-3.49.975.975,0,0,1,.11.83c-.05.18-.09.36.13.4s.41-.15.35-.33c-.11-.35.05-.52.28-.73a.5.5,0,0,0,.11-.63c-.2-.28-.49.1-.74-.01.02-.04.03-.08.05-.12.04-.05.07-.1.11-.15.42-.73.55-1.58.9-2.33.31.06.2.31.23.49.02.15.05.3.23.32s.3-.13.36-.29a.915.915,0,0,0-.64-1.04,3.267,3.267,0,0,1,.3-1.11c.51.07.35.47.38.77.01.12-.02.28.15.28.14,0,.21-.13.21-.26a3.865,3.865,0,0,1,.22-.89c.12-.57-.37-.71-.74-.91a7.454,7.454,0,0,0,.05-1.16v-.03a.467.467,0,0,1,.1-.05c.38.01.37.32.44.57.04.13.1.3.29.27s.17-.21.16-.35c-.01-.86-.1-1.72-.03-2.57.08-.93-.08-1.44-1.16-1.64a7.542,7.542,0,0,0-1.37-.25c-3.4,0-6.81.05-10.21-.03a4.61,4.61,0,0,1-2.29-.19c-.3-.17-.69.04-1.02.16a.752.752,0,0,1-1.05-.46.946.946,0,0,1,.3-1.21c.48-.25.81-.05,1.1.36.14.19.34.53.55.44.44-.2.96-.08,1.35-.39a.2.2,0,0,0,.06-.27c-.11-.16-.27-.32-.46-.25a.612.612,0,0,1-.83-.27c-.18-.26-.56-.04-.83-.14s-.48-.28-.71.09c-.18.29-.39.1-.53-.11a.919.919,0,0,1-.06-.61c.26-2.69.09-5.38.11-8.07q.045-6.03,0-12.06c0-1.2.2-2.39.14-3.59-.02-.37.16-.53.52-.51H41.66a.76.76,0,0,1,.86.86q0,11.34-.01,22.69c0,.67.14,1.31.15,1.97a8.372,8.372,0,0,1-.38,2.99,5.161,5.161,0,0,0-.06,1.52c-.09,1.15-.46,2.24-.64,3.36a11.717,11.717,0,0,1-.72,2.63,10.012,10.012,0,0,0-.6,1.9c-.17.84-.62,1.59-.73,2.46a3.248,3.248,0,0,0,.02,1.58l-.15.33c-.04.05-.07.11-.11.16a5.324,5.324,0,0,1-.89,1.7c-.43.02-.94-.14-1.11.5-.11.39-.11.68.38.75a4.343,4.343,0,0,1-.65.99c-.29-.01-.54-.01-.7.33a1.834,1.834,0,0,1-.57.64.671.671,0,0,0-.21,1.02c-.08.09-.15.18-.23.26-.28-.04-.42.08-.39.37-.04.04-.07.09-.11.13-.58-.04-.71.29-.62.78a17.033,17.033,0,0,1-2.5,2.45c-.46-.04-.88-.04-.75.62a18.536,18.536,0,0,1-3.58,2.5c-.72-.36-.77-.33-.78.49a4.845,4.845,0,0,1-1.11.62.378.378,0,0,0-.37.21c-.21.1-.42.19-.63.29a.406.406,0,0,0-.37.2c-.21.1-.42.2-.64.29a.221.221,0,0,0-.25.23c-1.08.39-2.15.78-3.23,1.17a.691.691,0,0,0-.9-.61c-.64.19-.11.63-.1.96a1.246,1.246,0,0,1-.75.22c-.02-.72-.15-.83-.84-.67Zm16.11-8.87a.123.123,0,0,0-.17-.12.707.707,0,0,0-.53.73c-.19.25-.14.31-.11.3.12-.04.1-.15.11-.25,0-.13-.08-.04-.11-.03-.09.02-.12.09-.11.21.62-.32.91-.44.92-.84Zm-6.24-25.9a1.211,1.211,0,0,0-.8.83.785.785,0,0,0,.39.89c.22.15.32.16.36-.13.04-.32.3-.4.56-.5a12.418,12.418,0,0,0,1.92-.66c.14-.09.4-.16.34-.39s-.31-.14-.48-.15c-.27-.01-.54,0-.86,0a4.124,4.124,0,0,0-1.42.12Zm-10.83-.48a.349.349,0,0,0,.29-.42c-.04-.27-.26-.22-.44-.22-.64,0-1.28-.02-1.92,0-.33.02-.74,0-.86.44-.14.51.08.67.7.67a10.091,10.091,0,0,0,2.22-.48Zm11.68,2.47c-.12.04-.26.04-.26.2a.268.268,0,0,0,.27.29,1.532,1.532,0,0,1,1.06.41c.24.22.4-.11.58-.2.24-.13.19-.39.16-.61s-.23-.19-.4-.2h-.49a2.337,2.337,0,0,0-.92.12Zm-.1,11.12c.03.09.16.08.22.03a.689.689,0,0,0,.11-.85C28.12,58.27,27.88,58.46,27.99,58.78ZM26.12,62c-.05.13.02.2.14.19s.16-.11.16-.22c0-.08,0-.17-.11-.18-.13.01-.15.12-.19.21Zm.71-.72a.491.491,0,0,0-.1.04c.02.03.02.09.05.1a.26.26,0,0,0,.1-.04C26.86,61.35,26.86,61.29,26.83,61.28ZM40.04,22.34a.491.491,0,0,0-.1.04c.02.03.02.09.05.1a.26.26,0,0,0,.1-.04C40.07,22.41,40.07,22.35,40.04,22.34Z"/>
    <path id="Tracé_3" data-name="Tracé 3" d="M29.03,52.64c.38.01.37.32.44.57.04.13.1.3.29.27s.17-.21.16-.35c-.01-.86-.1-1.72-.03-2.57.08-.93-.08-1.44-1.16-1.64a7.542,7.542,0,0,0-1.37-.25c-3.4,0-6.81.05-10.21-.03a4.61,4.61,0,0,1-2.29-.19c-.3-.17-.69.04-1.02.16a.752.752,0,0,1-1.05-.46.946.946,0,0,1,.3-1.21c.48-.25.81-.05,1.1.36.14.19.34.53.55.44.44-.2.96-.08,1.35-.39a.2.2,0,0,0,.06-.27c-.11-.16-.27-.32-.46-.25a.612.612,0,0,1-.83-.27c-.18-.26-.56-.04-.83-.14s-.48-.28-.71.09c-.18.29-.39.1-.53-.11a.919.919,0,0,1-.06-.61c.26-2.69.09-5.38.11-8.07q.045-6.03,0-12.06c0-1.2.2-2.39.14-3.59-.02-.37.16-.53.52-.51H41.64a.76.76,0,0,1,.86.86q0,11.34-.01,22.69c0,.67.14,1.31.15,1.97a8.372,8.372,0,0,1-.38,2.99,5.161,5.161,0,0,0-.06,1.52c-.09,1.15-.46,2.24-.64,3.36a11.717,11.717,0,0,1-.72,2.63,10.012,10.012,0,0,0-.6,1.9c-.17.84-.62,1.59-.73,2.46a3.248,3.248,0,0,0,.02,1.58,25.939,25.939,0,0,0,2.08-5.3,50.074,50.074,0,0,0,1.6-8.14,21.631,21.631,0,0,0,.14-2.28c.33-8.84.07-17.69.16-26.53,0-.58-.16-.73-.73-.72-3.14.03-6.28.01-9.43.01q-10.4,0-20.8-.01c-.56,0-.72.14-.72.71q.03,13.86.01,27.73c0,.91,0,.91.89.9,5.21,0,10.42,0,15.63-.03.6,0,.79.22.81.81.02.67-.14,1.31-.16,1.97Z"/>
    <path id="Tracé_4" data-name="Tracé 4" d="M64.18,20.57c0,.92.1.99,1.06.86.46-.06.89.14,1.35.12,8.14-.29,16.29-.06,24.44-.13a29.622,29.622,0,0,0,2.98.02c.35-.04.83.66.76,1.14a46.346,46.346,0,0,0-.19,6.56c-.02,3.65-.04,7.29.02,10.93a12.059,12.059,0,0,0,.08,3c.07.24.12.38.38.36,0-2.38.02-4.76.02-7.14q0-7.485-.01-14.97c0-.88-.04-.9-.91-.78a4.255,4.255,0,0,1-.62.01H64.98c-.27,0-.54.01-.81.02Z"/>
    <path id="Tracé_5" data-name="Tracé 5" d="M95.06,45.8c-.36-.04-.59.07-.63.49a12.528,12.528,0,0,0-.26,3.24c.1.65-.21,1.34,0,2.02-.93,1.08-.18,2.63-1.03,3.73.13.8-.37,1.46-.5,2.18-.19,1.05-.66,1.99-.91,3.01-.24.97-.93,1.79-.92,2.84,0,.32-.52.42-.44.84.24,0,.36-.26.58-.18a41.826,41.826,0,0,0,4.1-18.16Z"/>
    <path id="Tracé_6" data-name="Tracé 6" d="M14.1,82.15c.02-.3-.01-.62-.33-.73a.871.871,0,0,1-.53-.95c.01-2.81-.09-5.62.04-8.43a4.675,4.675,0,0,0-.14-.9c-.03-.15-.06-.33.18-.26.29.08.56.32.85.03s.13-.63.17-.94c-.43.2-.9.25-1.34.43a.943.943,0,0,0-.65,1V81.93c0,.45.22.6.62.52.38-.08.75-.19,1.13-.29Z"/>
    <path id="Tracé_7" data-name="Tracé 7" d="M79.64,49.55a2.938,2.938,0,0,0-1.3-.26c-1.4.02-2.8-.1-4.21-.1-2.05,0-4.1.03-6.15-.04a13.647,13.647,0,0,0-2.39.25c-.28.04-.41.16-.41.44.21.02.41.05.62.05H77.63c.54,0,1.07-.07,1.61-.1A.411.411,0,0,0,79.64,49.55Z"/>
    <path id="Tracé_8" data-name="Tracé 8" d="M65.93,82.19c.03-.37-.17-.62-.5-.52-.6.18-.5-.21-.5-.52V72.46a1.907,1.907,0,0,0-.28-1.24c-.21-.27.09-.51.03-.77-.44.06-.49.41-.49.74,0,3.63,0,7.27-.01,10.9,0,.43.22.48.55.4.4-.09.8-.2,1.2-.3Z"/>
    <path id="Tracé_9" data-name="Tracé 9" d="M14.96,69.78c.06.22-.13.54.21.64a.881.881,0,0,0,.73-.21,11.862,11.862,0,0,1,1.94-1c.52-.2,1.01-.45,1.51-.69.55-.26-.01-.63-.02-.95-1.41.83-2.89,1.51-4.37,2.2Z"/>
    <path id="Tracé_10" data-name="Tracé 10" d="M66.79,69.78c.03.23-.06.53.26.63a.518.518,0,0,0,.67-.29c.13-.25.41-.31.65-.43.8-.43,1.68-.65,2.48-1.09a1,1,0,0,0,.56-1.15,48.779,48.779,0,0,1-4.62,2.34Z"/>
    <path id="Tracé_11" data-name="Tracé 11" d="M21.91,65.76c.33.71.47.61,1.08.1.78-.65,1.27-1.54,2.08-2.14.27-.2.28-.48.37-.75-.28-.03-.53.19-.82.09C23.77,64.01,22.83,64.88,21.91,65.76Z"/>
    <path id="Tracé_12" data-name="Tracé 12" d="M73.67,65.83c.46.53.83.27,1.18-.14.4-.47.94-.77,1.34-1.25.39-.46.48-.81.07-1.25C75.49,64.16,74.52,64.93,73.67,65.83Z"/>
    <path id="Tracé_13" data-name="Tracé 13" d="M90.36,65.09c-.4.1-.97-.05-.84.72.03.19-.32.4-.56.5s-.37.26-.33.46c.12.58-.23.85-.64,1.11-.38.25-.36.66.03.95A21.309,21.309,0,0,0,90.36,65.09Z"/>
    <path id="Tracé_14" data-name="Tracé 14" d="M80.38,54.01c.51.03.45.49.57.83a2.9,2.9,0,0,0-.3-3.2c-.09.79-.18,1.58-.27,2.36Z"/>
    <path id="Tracé_15" data-name="Tracé 15" d="M79.03,58.62c.17.01.22.15.3.27s-.03.39.19.4c.25.01.23-.25.28-.41a12.055,12.055,0,0,0,.4-1.2c.15-.5,0-.85-.55-.94-.21.62-.41,1.24-.62,1.87Z"/>
    <path id="Tracé_16" data-name="Tracé 16" d="M19.71,67.34c.59.6.63.6,1.14-.07a.65.65,0,0,1,.56-.32c.18,0,.4.02.39-.26,0-.24-.19-.23-.36-.23-.21,0-.17-.12-.12-.25-.54.38-1.08.75-1.61,1.13Z"/>
    <path id="Tracé_17" data-name="Tracé 17" d="M18.21,81.12c-.02-.72-.15-.83-.84-.67a.9.9,0,0,1-.54,0,.325.325,0,0,0-.45.19c-.08.23.13.28.3.38.21.13.57-.03.66.33.29-.08.58-.16.87-.25Z"/>
    <path id="Tracé_18" data-name="Tracé 18" d="M16.34,81.64c-.12-.55-.39-.86-1.01-.65-.13.04-.29,0-.43.03-.18.03-.5-.12-.51.18,0,.28.3.3.52.31.26.01.51,0,.55.35a2.855,2.855,0,0,0,.87-.22Z"/>
    <path id="Tracé_19" data-name="Tracé 19" d="M28.67,54.88c.51.07.35.47.38.77.01.12-.02.28.15.28.14,0,.21-.13.21-.26a3.865,3.865,0,0,1,.22-.89c.12-.57-.37-.71-.74-.91-.07.34-.15.67-.22,1.01Z"/>
    <path id="Tracé_20" data-name="Tracé 20" d="M26.91,59.57a.975.975,0,0,1,.11.83c-.05.18-.09.36.13.4s.41-.15.35-.33c-.11-.35.05-.52.28-.73a.5.5,0,0,0,.11-.63c-.2-.28-.49.1-.74-.01-.08.16-.15.31-.23.47Z"/>
    <path id="Tracé_21" data-name="Tracé 21" d="M80.75,50.01c0-.14.11-.21.21-.28.3-.21.42-.52.19-.8s-.56-.17-.81.08c-.19.19-.39.36-.59.54.25.34.75.13,1.01.46Z"/>
    <path id="Tracé_22" data-name="Tracé 22" d="M37.01,67.95c-.29-.01-.54-.01-.7.33a1.834,1.834,0,0,1-.57.64.671.671,0,0,0-.21,1.02,13.607,13.607,0,0,0,1.48-1.98Z"/>
    <path id="Tracé_23" data-name="Tracé 23" d="M38.39,65.71c-.43.02-.94-.14-1.11.5-.11.39-.11.68.38.75A5.054,5.054,0,0,0,38.39,65.71Z"/>
    <path id="Tracé_24" data-name="Tracé 24" d="M19.96,80.54a.691.691,0,0,0-.9-.61c-.64.19-.11.63-.1.96.32-.14.71-.12,1-.36Z"/>
    <path id="Tracé_25" data-name="Tracé 25" d="M68.17,81.63c-.3-.64-.41-.67-1.58-.42.17.26.7.19.58.65A1.2,1.2,0,0,0,68.17,81.63Z"/>
    <path id="Tracé_26" data-name="Tracé 26" d="M87.85,69.07h-.43c-.65.02-.74.15-.61.79a5.109,5.109,0,0,1,.05.55,5.045,5.045,0,0,0,1-1.34Z"/>
    <path id="Tracé_27" data-name="Tracé 27" d="M65.03,70.39c.14.29.23.64.69.51.52-.14.46-.55.45-.94C65.79,70.1,65.41,70.24,65.03,70.39Z"/>
    <path id="Tracé_28" data-name="Tracé 28" d="M28.2,56.5c.31.06.2.31.23.49.02.15.05.3.23.32s.3-.13.36-.29a.915.915,0,0,0-.64-1.04c-.06.17-.11.34-.17.51Z"/>
    <path id="Tracé_29" data-name="Tracé 29" d="M71.65,67.3c.24.5.46.54.76.13a1.3,1.3,0,0,0,.37-.95c-.38.27-.75.55-1.13.82Z"/>
    <path id="Tracé_30" data-name="Tracé 30" d="M79.88,56.01c.19-.19.37-.35.38.11,0,.15-.04.37.22.36.24-.02.26-.22.28-.41a.634.634,0,0,0-.63-.8,1.43,1.43,0,0,0-.25.75Z"/>
    <path id="Tracé_31" data-name="Tracé 31" d="M80.65,51.4a2.067,2.067,0,0,0,.25-.15c.67-.51.66-.69-.03-1.1C80.35,50.49,80.74,50.99,80.65,51.4Z"/>
    <path id="Tracé_32" data-name="Tracé 32" d="M64.06,49.85V48.8c0-.27-.01-.55-.35-.64,0,.43-.02.86-.01,1.29,0,.23.01.48.37.4Z"/>
    <path id="Tracé_33" data-name="Tracé 33" d="M74.3,79.53c-.3,0-.34-.42-.67-.38-.28.03-.79-.14-.39.47a.729.729,0,0,1,.04.3,3.991,3.991,0,0,0,1.01-.39Z"/>
    <path id="Tracé_34" data-name="Tracé 34" d="M81.99,75.04c-.54-.16-.04-.45-.07-.67-.66.05-.73.15-.49.7a1.435,1.435,0,0,1,.07.36C81.72,75.38,81.95,75.33,81.99,75.04Z"/>
    <path id="Tracé_35" data-name="Tracé 35" d="M71.69,80.53a2.2,2.2,0,0,1-.25-.17c-.17-.17-.36-.29-.6-.17-.31.17-.04.39-.04.59A1.56,1.56,0,0,0,71.69,80.53Z"/>
    <path id="Tracé_36" data-name="Tracé 36" d="M79.66,76.67a.8.8,0,0,0-1.15.73A5.739,5.739,0,0,0,79.66,76.67Z"/>
    <path id="Tracé_37" data-name="Tracé 37" d="M84.64,72.68c-.6.07-1,.35-1.02,1.01A4.654,4.654,0,0,0,84.64,72.68Z"/>
    <path id="Tracé_38" data-name="Tracé 38" d="M27.34,77.04c-.72-.36-.77-.33-.78.49A2.194,2.194,0,0,0,27.34,77.04Z"/>
    <path id="Tracé_39" data-name="Tracé 39" d="M86.29,70.77c-.12-.11.08-.52-.31-.36-.22.09-.29.29-.09.5.11.12.09.27.11.41a.555.555,0,0,0,.29-.54Z"/>
    <path id="Tracé_40" data-name="Tracé 40" d="M63.7,47.79a.9.9,0,0,0,0-1.24Z"/>
    <path id="Tracé_41" data-name="Tracé 41" d="M69.68,81.17a.441.441,0,0,0-.55-.28c-.3.05-.19.31-.22.49.25-.07.51-.14.76-.22Z"/>
    <path id="Tracé_42" data-name="Tracé 42" d="M34.8,70.69c-.58-.04-.71.29-.62.78C34.42,71.24,34.72,71.05,34.8,70.69Z"/>
    <path id="Tracé_43" data-name="Tracé 43" d="M31.67,73.92c-.46-.04-.88-.04-.75.62A2.247,2.247,0,0,0,31.67,73.92Z"/>
    <path id="Tracé_44" data-name="Tracé 44" d="M72.66,80.18c-.02-.24-.18-.41-.39-.34-.23.08-.08.35-.12.54.17-.07.34-.13.51-.2Z"/>
    <path id="Tracé_45" data-name="Tracé 45" d="M63.7,40.95a.575.575,0,0,0,.04-.9A2.473,2.473,0,0,0,63.7,40.95Z"/>
    <path id="Tracé_46" data-name="Tracé 46" d="M86,71.32c-.61.07-.67.13-.46.52C85.69,71.67,85.85,71.5,86,71.32Z"/>
    <path id="Tracé_47" data-name="Tracé 47" d="M63.7,21.92c.37-.21.37-.41,0-.62Z"/>
    <path id="Tracé_48" data-name="Tracé 48" d="M81.3,75.56c-.42-.25-.43.03-.42.33Z"/>
    <path id="Tracé_49" data-name="Tracé 49" d="M35.3,70.19c-.28-.04-.42.08-.39.37C35.13,70.53,35.22,70.37,35.3,70.19Z"/>
    <path id="Tracé_50" data-name="Tracé 50" d="M77.26,78.15c-.16.06-.49-.33-.48.18C76.93,78.24,77.15,78.33,77.26,78.15Z"/>
    <path id="Tracé_51" data-name="Tracé 51" d="M76.15,78.67c-.25-.23-.36-.14-.36.17C75.91,78.79,76.03,78.73,76.15,78.67Z"/>
    <path id="Tracé_52" data-name="Tracé 52" d="M75.15,79.16c-.24-.24-.35-.15-.37.15C74.91,79.27,75.05,79.28,75.15,79.16Z"/>
    <path id="Tracé_53" data-name="Tracé 53" d="M25.45,78.15a.378.378,0,0,0-.37.21C25.28,78.42,25.41,78.38,25.45,78.15Z"/>
    <path id="Tracé_54" data-name="Tracé 54" d="M24.45,78.65a.406.406,0,0,0-.37.2C24.28,78.92,24.41,78.87,24.45,78.65Z"/>
    <path id="Tracé_55" data-name="Tracé 55" d="M23.44,79.14a.221.221,0,0,0-.25.23C23.37,79.4,23.41,79.28,23.44,79.14Z"/>
    <path id="Tracé_56" data-name="Tracé 56" d="M79.77,56.37c.13-.09.11-.24.11-.37A.391.391,0,0,0,79.77,56.37Z"/>
    <path id="Tracé_57" data-name="Tracé 57" d="M28.93,52.72v-.03h-.05A.085.085,0,0,1,28.93,52.72Z"/>
    <path id="Tracé_58" data-name="Tracé 58" d="M78.28,77.53a1.481,1.481,0,0,0-.14.11A1.709,1.709,0,0,0,78.28,77.53Z"/>
    <path id="Tracé_59" data-name="Tracé 59" d="M27.19,58.99s.07-.1.11-.15C27.26,58.89,27.23,58.94,27.19,58.99Z"/>
    <path id="Tracé_60" data-name="Tracé 60" d="M78.26,60.24s.09-.09.13-.14C78.35,60.15,78.3,60.19,78.26,60.24Z"/>
    <path id="Tracé_61" data-name="Tracé 61" d="M70.8,80.77s-.09.07-.14.1C70.71,80.84,70.75,80.8,70.8,80.77Z"/>
    <path id="Tracé_62" data-name="Tracé 62" d="M39.38,63.84c-.04.05-.07.11-.11.16C39.31,63.95,39.34,63.89,39.38,63.84Z"/>
    <path id="Tracé_63" data-name="Tracé 63" d="M66.29,82.13a1.466,1.466,0,0,1-.11.1C66.22,82.2,66.25,82.16,66.29,82.13Z"/>
    <path id="Tracé_64" data-name="Tracé 64" d="M78.24,60.47a1.514,1.514,0,0,0,.02.3c.05.19-.14.48.19.55.17.03.22-.16.26-.29.08-.27.03-.48-.29-.54l-.18-.03h0Z"/>
    <path id="Tracé_65" data-name="Tracé 65" d="M79.12,59.64c-.24.01-.24.17-.23.31s-.06.33.14.34c.17.01.21-.16.22-.31S79.25,59.7,79.12,59.64Z"/>
    <path id="Tracé_66" data-name="Tracé 66" d="M73.19,66.71a.239.239,0,0,0,.25.21c.16,0,.2-.11.19-.24s-.07-.23-.22-.21a.224.224,0,0,0-.22.23Z"/>
    <path id="Tracé_67" data-name="Tracé 67" d="M77.89,61.82c.05.04.1.09.13.09s.09-.07.09-.12c0-.08-.04-.16-.14-.13-.04.01-.05.09-.09.16Z"/>
    <path id="Tracé_68" data-name="Tracé 68" d="M68.64,80.88c.04-.05.09-.1.09-.13s-.07-.09-.12-.09c-.08,0-.16.04-.13.14.01.04.09.05.16.09Z"/>
    <path id="Tracé_69" data-name="Tracé 69" d="M28.66,45.56a4.124,4.124,0,0,0-1.42.12,1.211,1.211,0,0,0-.8.83.785.785,0,0,0,.39.89c.22.15.32.16.36-.13.04-.32.3-.4.56-.5a12.418,12.418,0,0,0,1.92-.66c.14-.09.4-.16.34-.39s-.31-.14-.48-.15c-.27-.01-.54,0-.86,0Z"/>
    <path id="Tracé_70" data-name="Tracé 70" d="M14.19,45.68a10.091,10.091,0,0,0,2.22-.48.349.349,0,0,0,.29-.42c-.04-.27-.26-.22-.44-.22-.64,0-1.28-.02-1.92,0-.33.02-.74,0-.86.44-.14.51.08.67.7.67Z"/>
    <path id="Tracé_71" data-name="Tracé 71" d="M29.02,47.55a2.337,2.337,0,0,0-.92.12c-.12.04-.26.04-.26.2a.268.268,0,0,0,.27.29,1.532,1.532,0,0,1,1.06.41c.24.22.4-.11.58-.2.24-.13.19-.39.16-.61s-.23-.19-.4-.2h-.49Z"/>
    <path id="Tracé_72" data-name="Tracé 72" d="M32.78,72.18c.4-.08.69-.2.7-.61a.123.123,0,0,0-.17-.12.707.707,0,0,0-.53.73Z"/>
    <path id="Tracé_73" data-name="Tracé 73" d="M28.32,57.96c-.2.31-.44.5-.33.82.03.09.16.08.22.03A.689.689,0,0,0,28.32,57.96Z"/>
    <path id="Tracé_74" data-name="Tracé 74" d="M25.43,62.97c.18-.01.39.02.44-.23a.2.2,0,0,0-.1-.12C25.52,62.6,25.45,62.76,25.43,62.97Z"/>
    <path id="Tracé_75" data-name="Tracé 75" d="M26.31,61.79c-.12.02-.15.12-.19.21-.05.13.02.2.14.19s.16-.11.16-.22c0-.08,0-.17-.11-.19Z"/>
    <path id="Tracé_76" data-name="Tracé 76" d="M32.56,72.42s.08.07.11.06c.12-.04.1-.15.11-.25,0-.13-.08-.04-.11-.03-.09.02-.12.09-.11.21Z"/>
    <path id="Tracé_77" data-name="Tracé 77" d="M26.88,61.39s-.02-.09-.05-.1a.26.26,0,0,0-.1.04c.02.03.02.09.05.1A.26.26,0,0,0,26.88,61.39Z"/>
    <path id="Tracé_78" data-name="Tracé 78" d="M40.09,22.45s-.02-.09-.05-.1a.26.26,0,0,0-.1.04c.02.03.02.09.05.1A.26.26,0,0,0,40.09,22.45Z"/>
  </g>
</svg>
