<?xml version="1.0" encoding="utf-8"?>
<!-- Generator: Adobe Illustrator 26.2.0, SVG Export Plug-In . SVG Version: 6.00 Build 0)  -->
<svg version="1.1" id="Calque_1" xmlns="http://www.w3.org/2000/svg" xmlns:xlink="http://www.w3.org/1999/xlink" x="0px" y="0px"
	 viewBox="0 0 355.46 67.46" style="enable-background:new 0 0 355.46 67.46;" xml:space="preserve">
<g>
	<path d="M6.9,37.08c0-2.91,1.1-8.36,6.38-16.11c5-7.31,11.49-12.87,17.27-12.87c8.85,0,2.8,18.97-2.91,32.94
		C23.84,50.5,16.31,61.5,7.4,61.5c-7.09,0-8.63-8.19-1.65-14.35c4.01-3.63,8.58-3.68,10.67-3.41c4.29,0.5,4.89,1.81,2.25,1.26
		c-3.3-0.6-8.47-0.49-11.99,2.97c-5.44,5.22-5,12.54,0.55,12.54c5.55,0,12.81-5.44,19.25-20.24c9.29-21.28,8.69-30.85,3.9-30.85
		c-4.45,0-11.71,6.38-15.62,12.21c-4.4,6.6-6.87,12.32-6.87,15.62c0,2.53,1.48,3.63,2.36,4.18c0.88,0.55,0.22,1.1-0.6,0.71
		C8.33,41.53,6.9,39.39,6.9,37.08z"/>
	<path d="M39.24,28.56c0.11-0.22,0.66-0.6,0.94-2.31c0.17-1.37-0.33-1.59-0.33-1.87c0.11-0.27,0.72-0.83,1.1-0.17
		c0.33,0.71,0.38,1.65,0.17,2.69c-0.33,1.04-0.83,2.42-1.71,2.25C39.13,29.16,39.08,28.78,39.24,28.56z"/>
	<path d="M51.29,41.42C53.65,25.04,65.53,1.5,70.04,1.5c5.06,0-0.71,14.35-5.22,21.83c-3.57,5.88-8.19,13.86-12.15,18.15
		c-0.27,1.81-0.44,3.57-0.44,5.17c0,4.84,1.43,7.31,3.35,7.31c4.01,0,12.1-9.07,16.72-16.06c0.6-0.88,1.65-0.66,0.82,0.49
		c-6.82,9.68-13.91,16.99-18.2,16.99c-2.42,0-4.07-3.96-4.07-8.63c0-1.1,0.05-2.31,0.17-3.52c-2.64,2.86-5.66,4.78-7.09,4.78
		c-2.31,0-3.63-5.61,0.17-21.94c2.69-11.88,4.84-15.01,5.72-15.01c0.5,0,0.77,0.99,0.44,1.98c-0.17,0.66-0.82,1.76-1.43,2.8
		c-0.11,0.27-2.48,5.61-3.46,10.5c-1.21,5.61-3.79,20.24-1.04,20.24C45.68,46.59,49.03,43.95,51.29,41.42z M52.99,39.5
		c3.57-4.29,7.81-11.6,10.72-16.33c7.48-12.04,8.14-20.35,6.27-20.35C67.23,2.82,56.07,23.83,52.99,39.5z"/>
	<path d="M99.96,20.47l1.32-3.57c2.2-5.94,2.42-6.65,2.92-6.65c0.49,0,1.32,1.1,1.21,1.65c-0.05,0.27-1.48,2.97-3.63,6.87
		c-2.25,6.76-5.11,14.79-7.59,23.65c-2.69,9.57-2.91,13.58-2.42,13.69c0.44,0.11-0.17,0.99-0.77,0.66
		c-0.83-0.44-0.39-4.89,2.31-14.9c1.7-6.32,3.57-12.26,5.33-17.49c-1.98,3.35-4.18,7.04-6.32,10.45c0.82,0.38,1.43,0.77,1.76,1.04
		c0.33,0.33,0.05,0.72-0.39,0.5l-1.87-0.82c-6.49,10.17-7.31,11.44-8.36,11.44c-0.88,0-1.81-1.27-1.81-3.02
		c0-4.4,3.3-9.79,7.75-9.79c0.66,0,1.43,0.17,2.09,0.39C94.35,29.66,97.59,24.38,99.96,20.47z M91,35.32
		c-0.33-0.05-0.66-0.11-0.99-0.11c-4.12,0-7.09,5.11-7.09,8.69c0,0.93,0.05,2.09,0.55,2.09C84.07,45.99,89.02,38.67,91,35.32z"/>
	<path d="M100.4,43.07c0-0.22-0.06-0.6,0.05-2.03c0.17-2.03,0.94-6.32,1.15-6.82c0.28-0.5,1.65-0.6,1.71-0.17
		c0.05,0.27-0.55,1.43-0.99,3.41c-0.39,1.48-0.66,2.75-0.5,2.75c0.22,0,0.5-0.94,2.42-2.97c1.98-1.98,3.85-3.08,4.62-3.08
		c0.88,0,2.15,0.77,2.97,0.77c0.77,0,2.04-0.11,2.86-0.44c0.88-0.39,1.21-0.39,1.21-0.06c0,0.27-2.36,1.48-4.34,1.48
		c-1.54,0-2.14-0.38-2.7-0.38c-0.49,0-2.75,0.99-4.29,2.64c-1.54,1.65-2.36,2.97-2.8,4.01s-0.6,1.48-0.77,1.48
		C100.79,43.68,100.4,43.24,100.4,43.07z"/>
	<path d="M134.83,35.1c-0.66,0.17-3.3,1.65-9.62,3.79c-5,1.7-6.27,1.98-7.15,1.98c-1.43,0-1.87-0.99-1.87-1.87
		c0-0.82,0.22-2.25,0.55-3.19c0.22-0.77,0.5-1.21,1.43-1.38c0.28-0.05,0.61,0.27,0.28,0.88c-0.83,1.71-0.99,2.75-1.1,3.63
		c-0.05,0.66,0.22,0.99,0.5,0.99c0.71,0,2.25-0.17,6.93-1.81c5.39-1.92,9.51-3.68,9.84-3.68C134.88,34.44,135.1,34.99,134.83,35.1z
		 M118.88,29.11c0.11-0.33,0.55-0.94,0.88-0.88c0.5,0.11,0.83,0.77,0.71,1.26c-0.17,0.5-0.88,1.1-1.21,1.04
		C118.99,30.43,118.77,29.49,118.88,29.11z"/>
	<path d="M138.24,34.16c-0.17-0.22-0.22-0.44-0.22-0.71c0-0.38,0.6-1.26,1.15-1.26c0.33,0,0.5,0.22,0.44,0.6
		c-0.06,0.49-0.28,0.93-0.5,1.37c0.99,0.88,3.74,1.21,5.44,1.27c2.42,0.05,4.51-0.33,5.94-0.83c0.33-0.05,0.93,0.38,0.49,0.6
		c-0.22,0.11-2.03,1.15-5.44,1.1c-3.24,0-5.66-0.66-6.82-1.6l-0.66,0.94c-0.33,0.44-2.53,3.02-3.52,3.02
		c-0.88,0-1.16-1.65-1.04-2.58c0.05-0.77,0.5-1.65,1.21-1.65c0.44,0,0.17,0.44-0.05,1.38c-0.22,0.93-0.17,1.7,0.11,1.7
		C135.27,37.52,137.19,35.81,138.24,34.16z"/>
	<path d="M151.05,42.03c-2.86,0.22-4.12-2.2-2.97-4.73c1.1-2.53,3.3-3.52,4.45-3.3c1.04,0.17,1.38,1.04,0.93,2.31
		c-0.66,1.7-2.69,2.91-4.67,3.57c0.27,0.77,1.04,1.15,1.98,1.15c1.71,0,3.24-0.99,4.78-2.14c0.5-0.39,0.88-0.11,0.28,0.55
		C154.52,40.87,152.26,41.97,151.05,42.03z M148.69,39.22c1.59-0.55,3.52-2.09,3.96-3.3c0.17-0.49,0.11-0.99-0.28-1.1
		c-0.6-0.17-2.36,0.55-3.3,2.86C148.8,38.29,148.69,38.78,148.69,39.22z"/>
	<path d="M173.71,38.45c-0.33,1.81,0,2.36,0.05,2.36c0.99,0,3.96-3.24,7.42-9.02c2.53-4.23,5.33-12.1,7.86-16.83
		c0.44-0.88,1.81-1.59,0.71,0.44c-2.14,4.01-5.11,12.48-7.97,17.32c-3.25,5.5-6.32,8.85-8.03,8.85c-0.66,0-1.21-0.83-1.21-3.08
		c0-0.49,0.28-2.69,0.22-2.91c0-0.33-0.17-0.99,0.11-1.1c0.66-0.27,1.48,0.33,1.48,0.82C174.37,35.7,173.77,38.01,173.71,38.45z
		 M174.76,26.41c0-0.38,0.66-0.99,0.93-0.99c0.22,0,0.71,0.27,0.71,0.82c0,0.5-0.83,1.38-1.1,1.38
		C174.98,27.62,174.76,26.74,174.76,26.41z"/>
	<path d="M183.78,49.51c0.11-3.35,0.94-14.9,2.58-23.76c0.38-2.04,0.77-3.85,1.16-5.5c-10.72,0-11.71,0.06-11.93-0.77
		c-0.11-0.49,1.43-1.15,1.87-0.88c0.55,0.33,0.94,0.5,2.53,0.5l7.81,0.05c1.76-7.04,3.41-9.9,4.18-9.9c0.44,0,0.77,1.32,0.66,1.81
		c-0.17,0.66-0.39-0.27-0.99,1.04c-0.11,0.17-1.26,3.19-2.31,7.04c1.92,0,2.64,0.17,8.08,0.17c5.06,0,6.38-0.27,6.54,0.33
		c0.11,0.66-2.58,0.6-6.71,0.6H189c-0.5,1.98-0.99,4.07-1.32,6.1c-0.5,2.69-1.32,7.48-2.04,13.25c-0.44,3.13-0.99,10.94-0.66,13.58
		c0.28,2.09,0.71,2.31-0.05,2.42C184.22,55.78,183.72,53.58,183.78,49.51z"/>
	<path d="M225.08,35.76c0.22-0.6,1.65-0.44,1.65,1.65c0,1.48-1.15,3.63-3.13,3.57c-1.1,0-1.76-0.94-1.7-2.31
		c0-0.77,0.38-1.65,0.66-2.2c0.22-0.44,0.22-0.49,0.06-0.49c-0.5,0-4.01,0.6-10.61,4.01c-2.09,1.04-3.9,2.09-5.44,3.08
		c-0.22,1.71-0.44,3.68-0.66,6.38c0,0.11-0.06,0.17-0.06,0.27c4.24,1.87,6.05,4.4,6.05,8.52c0,4.45-3.41,8.96-6.05,8.96
		c-1.92,0-2.42-5.99-1.37-16.88c-0.88-0.39-1.82-0.71-2.92-1.04c-2.03-0.6-1.87-2.03-0.27-3.41c0.99-0.88,2.36-1.92,3.9-3.02
		c0.44-3.46,1.1-7.53,2.69-16.99c2.42-14.24,4.23-17.43,5.5-17.93c0.71-0.27,1.38,0.22,1.59,1.04c0.22,0.82-0.05,0.77-0.5,0.77
		c-0.93,0.05-2.53,1.81-4.84,15.89c-1.48,9.13-2.25,12.32-2.86,16.17c1.1-0.66,2.25-1.38,3.46-2.03c3.74-2.03,8.91-4.18,11.77-5
		c1.71-0.5,1.87-0.82,2.25-0.82c0.44,0,0.66,0.44,0.61,0.99c-0.06,0.44-0.28,0.82-0.61,1.21c-0.83,0.88-1.32,1.92-1.38,2.69
		c0,0.71,0.28,1.32,0.99,1.32c0.88,0,1.98-1.37,1.98-2.8c0-0.27,0-0.77-0.27-1.15C225.3,35.81,224.97,36.03,225.08,35.76z
		 M205.06,44.12c-1.16,0.77-2.03,1.48-2.75,2.03c-1.43,1.1-1.54,1.87-0.05,2.31c0.83,0.22,1.59,0.49,2.31,0.77
		c0-0.33,0.06-0.6,0.06-0.93L205.06,44.12z M205.72,50.94c-0.88,11.66-0.33,14.74,0.6,14.74c0.88,0,4.46-2.42,4.46-7.81
		C210.78,55.06,209.41,52.81,205.72,50.94z"/>
	<path d="M229.54,43.07c0-0.22-0.05-0.6,0.05-2.03c0.17-2.03,0.93-6.32,1.16-6.82c0.27-0.5,1.65-0.6,1.7-0.17
		c0.06,0.27-0.55,1.43-0.99,3.41c-0.38,1.48-0.66,2.75-0.5,2.75c0.22,0,0.5-0.94,2.42-2.97c1.98-1.98,3.85-3.08,4.62-3.08
		c0.88,0,2.14,0.77,2.97,0.77c0.77,0,2.03-0.11,2.86-0.44c0.88-0.39,1.21-0.39,1.21-0.06c0,0.27-2.36,1.48-4.34,1.48
		c-1.54,0-2.14-0.38-2.69-0.38c-0.5,0-2.75,0.99-4.29,2.64c-1.54,1.65-2.37,2.97-2.8,4.01c-0.44,1.04-0.61,1.48-0.77,1.48
		C229.92,43.68,229.54,43.24,229.54,43.07z"/>
	<path d="M265.67,39.06c-1.92,2.09-3.85,4.01-5.11,4.01c-0.77,0-1.43-0.71-1.1-1.98c0.38-1.38,0.88-3.13,1.26-4.29
		c0.44-1.43,0.17-2.03,0.71-2.14c0.55-0.06,0.77,0.38,0.77,0.55c0,0.44-0.17,0.88-0.66,2.14c-0.38,1.1-0.93,2.75-1.04,3.19
		c-0.22,0.93-0.17,1.26,0.22,1.26c0.66,0,2.58-1.38,4.29-3.3c2.75-2.97,3.68-4.29,5-4.29c1.38,0,1.65,2.36,1.71,4.07
		c4.29-2.53,8.36-3.96,9.4-3.96c0.83,0,1.04,0.94,0.28,0.94c-1.1,0-5.28,1.43-9.68,4.23c-0.11,5-1.98,12.76-4.51,17.27
		c-2.53,4.45-5.88,7.48-8.8,7.48c-1.48,0-3.46-0.99-3.46-3.79c0-4.07,3.25-10.23,9.62-16.72c1.81-1.87,3.96-3.46,6.1-4.78
		c-0.06-1.92-0.17-3.3-0.88-3.3C268.86,35.65,267.54,37.02,265.67,39.06z M270.67,40.16c-1.87,1.21-3.68,2.64-5.33,4.34
		c-6.65,6.71-9.29,12.98-9.29,16.11c0,1.59,0.66,2.58,1.92,2.58c2.03,0,5.44-2.25,8.25-7.2C268.8,51.49,270.56,43.9,270.67,40.16z"
		/>
	<path d="M282.01,36.69c-0.28-0.27-0.55-0.55-0.71-0.94c-0.99-2.09,0.83-4.56,3.24-4.56c2.42,0,3.9,2.25,3.9,5.72v0.17
		c0.22,0,0.44,0,0.72-0.05c2.75-0.22,7.86-1.54,10.17-2.36c0.39-0.17,0.66,0.44,0.39,0.55c-1.21,0.5-7.48,2.53-10.72,2.8
		c-0.22,0.06-0.44,0.06-0.61,0.06c-0.5,5.28-4.4,9.57-6.93,9.57c-2.47,0-3.13-4.23-0.94-8.52
		C280.96,38.18,281.51,37.35,282.01,36.69z M287.17,38.07c-1.48,0-3.08-0.22-4.23-0.77c-0.44,0.6-0.93,1.32-1.32,2.03
		c-2.09,4.07-1.43,7.31-0.39,7.31C283.71,46.65,286.68,42.91,287.17,38.07z M283.6,36.42c0.99,0.44,2.31,0.66,3.68,0.66v-0.55
		c0-2.86-1.38-4.4-2.92-4.4c-1.48,0-2.86,1.43-2.09,3.08c0.11,0.27,0.28,0.44,0.44,0.66c0.83-0.88,1.54-1.37,1.71-1.37
		c0.33,0,0.49,0.17,0.49,0.38C284.92,34.99,284.31,35.54,283.6,36.42z"/>
	<path d="M305.27,36.69c-0.38,0.44-0.99,1.15-2.03,2.25c-1.87,1.98-5,4.4-5.99,4.4c-0.77,0-1.21-0.44-1.1-1.87
		c0.11-1.26,0.77-2.86,1.26-3.9c0.66-1.48,1.71-2.97,2.25-3.08c0.55-0.06,0.66,0.44,0.66,0.6c0,0.44-1.32,1.54-2.09,3.02
		c-0.6,1.21-0.99,2.42-1.1,2.86c-0.17,0.88,0.06,1.26,0.33,1.26c0.88,0,3.96-2.58,5.11-3.85c2.09-2.25,3.41-3.96,4.18-3.79
		c0.66,0.17,0.38,0.55-0.38,2.2c-0.66,1.43-1.59,3.74-2.09,5.61c-0.5,1.98,0.05,2.58,0.71,2.58c4.01,0,14.57-7.86,19.58-10.56
		c0.28-0.11,1.38-0.05,0.5,0.55c-4.95,3.19-15.73,11.11-20.18,11.11c-1.65,0-2.25-1.21-1.65-3.79
		C303.62,40.54,304.5,38.18,305.27,36.69z"/>
	<path d="M335.68,41.04c0.77-0.88,1.71-1.32,2.31-1.32c0.55,0-0.22,1.27-0.55,1.65c-0.27,0.33-1.15,1.1-1.37,1.1
		C335.74,42.47,334.91,41.92,335.68,41.04z M342.72,31.69c0.44-0.82,2.64-4.67,5.11-8.58c2.48-3.96,4.67-6.6,5-6.6
		c0.27,0,0.6,0.17-2.2,4.51c-2.8,4.34-7.09,12.1-7.64,12.1C342.5,33.12,342.34,32.51,342.72,31.69z"/>
</g>
</svg>
